<?xml version="1.0" encoding="UTF-8" standalone="no"?>
<svg
   version="1.1"
   width="1024"
   height="1024"
   id="svg119"
   sodipodi:docname="logo.svg"
   inkscape:export-filename="..\..\logo.svg"
   inkscape:export-xdpi="364.0889"
   inkscape:export-ydpi="364.0889"
   xmlns:inkscape="http://www.inkscape.org/namespaces/inkscape"
   xmlns:sodipodi="http://sodipodi.sourceforge.net/DTD/sodipodi-0.dtd"
   xmlns="http://www.w3.org/2000/svg"
   xmlns:svg="http://www.w3.org/2000/svg">
  <defs
     id="defs119" />
  <sodipodi:namedview
     id="namedview119"
     pagecolor="#ffffff"
     bordercolor="#000000"
     borderopacity="0.25"
     inkscape:showpageshadow="2"
     inkscape:pageopacity="0.0"
     inkscape:pagecheckerboard="0"
     inkscape:deskcolor="#d1d1d1"
     showgrid="false"
     inkscape:zoom="0.35787037"
     inkscape:cx="824.32083"
     inkscape:cy="-60.07762"
     inkscape:window-width="1920"
     inkscape:window-height="991"
     inkscape:window-x="-9"
     inkscape:window-y="-9"
     inkscape:window-maximized="1"
     inkscape:current-layer="svg119">
    <inkscape:page
       x="0"
       y="0"
       width="1024"
       height="1024"
       id="page2"
       margin="0"
       bleed="0" />
  </sodipodi:namedview>
  <path
     d="m 344.33173,297.31885 c 2.20946,1.10473 4.41891,2.20946 6.69532,3.34766 -6.79334,17.34262 -14.41261,34.30561 -21.96902,51.32642 -18.73044,47.79316 -17.48593,102.06547 1.88306,149.53315 29.35209,65.75281 94.57451,157.78004 164.03533,187.46894 28.90709,-2.07301 60.18379,-41.45445 80.34383,-60.25787 2.72298,-2.5029 5.44596,-5.0058 8.25146,-7.58454 53.67418,-51.21517 97.51626,-119.93413 100.33825,-195.78579 -1.00804,-39.70786 -11.7243,-75.4958 -31.01816,-110.11968 -3.92304,-7.88531 -3.92304,-7.88531 -3.92304,-17.92829 36.81367,14.26115 63.39008,78.6845 79.50692,112.14659 29.74756,68.0375 32.828,139.3828 6.15508,208.75225 -33.32112,82.7076 -93.66562,154.62902 -162.84124,210.12367 -6.92366,5.583 -13.76734,11.20677 -20.55673,16.94753 -1.77684,1.50012 -3.55368,3.00024 -5.38437,4.54582 -4.9923,4.22437 -9.9779,8.45666 -14.96312,12.68939 -21.86188,17.3517 -21.86188,17.3517 -34.02582,17.1568 -11.29043,-4.2339 -19.21181,-10.3718 -28.66434,-17.8629 -1.89039,-1.4964 -3.78078,-2.99273 -5.72845,-4.53442 -5.93365,-4.72718 -11.82272,-9.50554 -17.70517,-14.29621 -1.81622,-1.46182 -3.63244,-2.92365 -5.50369,-4.42977 C 352.1646,768.2141 261.76346,671.05441 247.2496,555.08864 c -6.43761,-96.54155 29.77067,-180.16736 90.38681,-254.42213 2.20946,-1.10473 4.41891,-2.20945 6.69532,-3.34766 z"
     fill="#57892c"
     id="path1"
     style="stroke-width:3.34766" />
  <path
     d="m 551.95202,182.39996 c 25.17978,19.66862 51.1534,43.28245 66.88781,71.39931 -1.6571,4.97128 -1.6571,4.97128 -3.34766,10.04298 -12.72784,-10.60652 -24.73958,-21.29702 -36.19657,-33.26736 -21.18405,-21.43038 -43.24267,-35.21109 -70.92854,-47.07648 0,23.19929 0,46.39857 0,70.30086 8.28545,3.31419 8.28545,3.31419 16.7383,6.69532 50.25657,30.24922 100.40534,86.53768 123.8634,140.6017 0,3.31418 0,6.62837 0,10.04298 -13.94355,-5.10519 -20.68968,-15.18755 -29.08279,-26.78127 -14.93341,-20.00927 -30.78482,-38.71917 -47.91338,-56.91021 -1.95053,-2.12746 -3.90107,-4.25493 -5.91071,-6.44686 -16.56581,-17.45603 -36.09835,-32.9698 -57.69482,-43.76804 -0.43435,14.83309 -0.62308,29.64382 -0.59255,44.48154 -0.0232,5.0364 -0.11153,10.07295 -0.26807,15.10697 -0.48795,16.54096 -0.22464,31.5109 4.20828,47.5366 10.93638,11.29413 22.75918,16.82171 36.82425,23.43361 32.10512,25.73455 64.42387,66.67861 73.64852,107.12511 -3.31419,0 -6.62837,0 -10.04298,0 -4.69457,-6.52532 -4.69457,-6.52532 -9.83375,-15.69215 -22.34202,-36.55967 -51.93524,-68.7549 -90.59604,-88.0853 -0.68785,14.36463 -1.09924,28.72496 -1.4646,43.10112 -0.19635,4.03053 -0.3927,8.06106 -0.595,12.21373 -0.49835,26.19881 3.09428,40.68182 19.5964,61.1144 8.40576,10.5972 12.53319,20.98069 17.40439,33.58775 0.85229,2.10373 1.70457,4.20746 2.58267,6.37494 4.60775,11.86092 6.9893,21.70189 5.99571,34.42466 -2.20945,0 -4.41891,0 -6.69532,0 -0.99657,-2.11209 -1.99315,-4.22418 -3.01992,-6.40027 -4.49565,-9.51716 -9.00225,-19.02909 -13.50915,-28.54093 -1.56863,-3.32497 -3.13725,-6.64994 -4.75341,-10.07567 -1.49958,-3.16098 -2.99916,-6.32197 -4.54419,-9.57875 -1.38495,-2.92769 -2.76991,-5.85538 -4.19683,-8.87179 -2.90666,-6.63537 -2.90666,-6.63537 -6.80075,-10.1811 -4.34623,25.10756 -4.46748,50.34712 -5.08034,75.77349 -0.11436,3.49758 -0.22871,6.99517 -0.34653,10.59874 -0.12583,4.77264 -0.12583,4.77264 -0.25418,9.64169 -1.01427,7.76353 -1.01427,7.76353 -7.70959,14.45885 -6.4525,-6.45249 -4.64865,-18.27539 -5.13918,-27.1082 -0.14388,-2.37302 -0.28775,-4.74603 -0.43598,-7.19096 -0.45776,-7.60597 -0.8938,-15.21302 -1.32939,-22.82028 -0.30588,-5.14581 -0.61317,-10.29153 -0.92192,-15.43716 -0.75519,-12.63781 -1.4909,-25.27663 -2.21651,-37.91617 -13.31107,21.38468 -24.11956,42.05681 -32.88814,65.7109 -1.29892,2.61941 -2.59784,5.23882 -3.93612,7.93761 -3.31418,1.10473 -6.62836,2.20946 -10.04298,3.34766 3.21676,-33.45426 19.20393,-70.18049 40.98268,-95.90522 9.41912,-17.95912 7.28265,-36.07287 6.72147,-55.99484 -0.0604,-4.06073 -0.12083,-8.12147 -0.18307,-12.30526 -0.15731,-9.98904 -0.37721,-19.97261 -0.65384,-29.95894 -42.09797,22.90625 -72.76412,57.47792 -98.49443,97.39597 -2.6151,3.15884 -2.6151,3.15884 -5.28302,6.38148 -3.31418,0 -6.62837,0 -10.04298,0 C 394.60383,461.5966 437.12109,409.938 488.2811,384.358 c 1.10473,-35.35128 2.20945,-70.70257 3.34766,-107.12511 -23.86813,15.91209 -43.12434,30.79976 -63.60554,50.2149 -2.59783,2.4209 -5.19567,4.84181 -7.87223,7.33608 -16.37714,15.72994 -29.94478,32.3645 -42.93112,50.98642 -6.20889,8.77487 -12.42892,17.26562 -19.4975,25.36898 -2.20945,0 -4.41891,0 -6.69532,0 1.8566,-15.07783 8.12085,-26.03283 16.31984,-38.49808 1.32454,-2.03306 2.64908,-4.06613 4.01376,-6.1608 14.9072,-22.35067 31.99841,-42.53958 49.96725,-62.46622 2.26987,-2.55037 4.53974,-5.10074 6.8784,-7.72839 9.63785,-10.25771 17.64384,-17.92619 30.36432,-24.27053 12.34741,-6.30475 20.57189,-11.04482 29.71048,-21.56363 5.91942,-21.62673 4.62902,-44.75145 3.34766,-66.95321 -41.30396,17.35646 -68.98668,44.19723 -99.4098,76.51234 -4.36765,3.8315 -4.36765,3.8315 -11.06297,3.8315 2.50943,-22.42552 18.47475,-34.61774 33.47659,-50.21489 2.23535,-2.4468 4.4707,-4.8936 6.77378,-7.41454 40.13971,-42.67917 80.20201,-57.61198 130.54566,-23.81286 z"
     fill="#e8f640"
     id="path2"
     style="stroke-width:3.34766" />
  <path
     d="m 498.32408,360.92438 c 1.10473,0 2.20945,0 3.34766,0 0,7.7331 0,15.46619 0,23.43362 2.40364,0.31934 4.80729,0.63867 7.28377,0.96768 41.88816,10.54445 74.23491,56.30796 96.70291,90.6745 1.92006,2.92661 1.92006,2.92661 3.8789,5.91234 6.83547,10.88844 11.09221,20.20501 12.65017,33.0042 -3.31419,0 -6.62837,0 -10.04298,0 -4.69457,-6.52532 -4.69457,-6.52532 -9.83375,-15.69215 -22.34202,-36.55967 -51.93524,-68.7549 -90.59604,-88.0853 -0.68785,14.36463 -1.09924,28.72496 -1.4646,43.10112 -0.19635,4.03053 -0.3927,8.06106 -0.595,12.21373 -0.49835,26.19881 3.09428,40.68182 19.5964,61.1144 8.40576,10.5972 12.53319,20.98069 17.40439,33.58775 0.85229,2.10373 1.70457,4.20746 2.58267,6.37494 4.60775,11.86092 6.9893,21.70189 5.99571,34.42466 -2.20945,0 -4.41891,0 -6.69532,0 -0.99657,-2.11209 -1.99315,-4.22418 -3.01992,-6.40027 -4.49565,-9.51716 -9.00225,-19.02909 -13.50915,-28.54093 -1.56863,-3.32497 -3.13725,-6.64994 -4.75341,-10.07567 -1.49958,-3.16098 -2.99916,-6.32197 -4.54419,-9.57875 -1.38495,-2.92769 -2.76991,-5.85538 -4.19683,-8.87179 -2.90666,-6.63537 -2.90666,-6.63537 -6.80075,-10.1811 -4.34623,25.10756 -4.46748,50.34712 -5.08034,75.77349 -0.11436,3.49758 -0.22871,6.99517 -0.34653,10.59874 -0.12583,4.77264 -0.12583,4.77264 -0.25418,9.64169 -1.01427,7.76353 -1.01427,7.76353 -7.70959,14.45885 -6.4525,-6.45249 -4.64865,-18.27539 -5.13918,-27.1082 -0.14388,-2.37302 -0.28775,-4.74603 -0.43598,-7.19096 -0.45776,-7.60597 -0.8938,-15.21302 -1.32939,-22.82028 -0.30588,-5.14581 -0.61317,-10.29153 -0.92192,-15.43716 -0.75519,-12.63781 -1.4909,-25.27663 -2.21651,-37.91617 -13.31107,21.38468 -24.11956,42.05681 -32.88814,65.7109 -1.29892,2.61941 -2.59784,5.23882 -3.93612,7.93761 -4.97127,1.65709 -4.97127,1.65709 -10.04298,3.34766 3.21676,-33.45426 19.20393,-70.18049 40.98268,-95.90522 9.41912,-17.95912 7.28265,-36.07287 6.72147,-55.99484 -0.0604,-4.06073 -0.12083,-8.12147 -0.18307,-12.30526 -0.15731,-9.98904 -0.37721,-19.97261 -0.65384,-29.95894 -42.09797,22.90625 -72.76412,57.47792 -98.49443,97.39597 -1.74339,2.10589 -3.48679,4.21178 -5.28302,6.38148 -3.31418,0 -6.62837,0 -10.04298,0 16.80374,-44.48049 56.29724,-103.19107 101.10978,-123.92879 6.38385,-2.44417 12.88751,-4.57148 19.40597,-6.62993 1.10473,-7.73309 2.20945,-15.46619 3.34766,-23.43362 z"
     fill="#c8de4a"
     id="path3"
     style="stroke-width:3.34766" />
  <path
     d="m 344.33173,297.31885 c 2.20946,1.10473 4.41891,2.20946 6.69532,3.34766 -6.79334,17.34262 -14.41261,34.30561 -21.96902,51.32642 -18.73044,47.79316 -17.48593,102.06547 1.88306,149.53315 30.77919,68.94972 85.68049,134.57253 148.13394,177.63519 4.55701,3.21062 4.55701,3.21062 9.20607,6.48609 0,2.20946 0,4.41892 0,6.69532 -2.20946,0 -4.41891,0 -6.69532,0 0,-2.20945 0,-4.41891 0,-6.69532 -3.52132,-1.24281 -3.52132,-1.24281 -7.11378,-2.51074 -15.39243,-6.69236 -28.19873,-15.48573 -39.75346,-27.61819 -3.31418,-1.65709 -3.31418,-1.65709 -6.69532,-3.34766 0,-2.20946 0,-4.41891 0,-6.69532 -2.89991,-1.24282 -2.89991,-1.24282 -5.8584,-2.51075 -8.63495,-4.79719 -14.43248,-10.15762 -20.92287,-17.57521 0,-2.20946 0,-4.41891 0,-6.69532 -3.31419,-1.10473 -6.62837,-2.20945 -10.04298,-3.34766 -1.58805,-2.69277 -3.17609,-5.38555 -4.81226,-8.15992 -5.59098,-9.16921 -8.68611,-11.74828 -18.62136,-15.2737 -2.20946,0 -4.41891,0 -6.69532,0 -1.65709,-11.59964 -1.65709,-11.59964 -3.34766,-23.43361 -2.20945,0 -4.41891,0 -6.69532,0 -1.44995,-3.1761 -2.89991,-6.35219 -4.3938,-9.62453 -4.95629,-11.13237 -4.95629,-11.13237 -15.69216,-17.15675 0,2.20945 0,4.41891 0,6.69532 -2.20945,0 -4.41891,0 -6.69532,0 -0.41427,-3.86655 -0.82854,-7.7331 -1.25537,-11.71681 -3.02866,-23.89277 -9.15098,-46.55753 -18.83058,-68.62703 -4.97128,-1.65709 -4.97128,-1.65709 -10.04298,-3.34766 1.10472,-1.86422 2.20945,-3.72845 3.34766,-5.64917 3.78607,-8.75529 3.872,-15.04159 3.34766,-24.47976 -3.31419,0 -6.62837,0 -10.04298,0 0,-4.41891 0,-8.83782 0,-13.39064 -4.60514,4.31731 -9.06434,8.79394 -13.39064,13.39064 0,2.20945 0,4.41891 0,6.69532 -2.20946,0 -4.41891,0 -6.69532,0 -0.20282,2.01958 -0.40565,4.03916 -0.61461,6.11994 -0.2805,2.67551 -0.561,5.35102 -0.84999,8.10761 -0.4078,3.96149 -0.4078,3.96149 -0.82384,8.003 -1.05922,7.89838 -1.05922,7.89838 -3.05997,14.95985 -2.05521,7.03176 -2.05521,7.03176 2.00075,16.37215 -3.31418,1.65709 -3.31418,1.65709 -6.69532,3.34766 0,14.36146 0,28.72292 0,43.51958 2.20946,1.10473 4.41891,2.20945 6.69532,3.34766 -0.62141,3.72845 -1.24282,7.45691 -1.88306,11.29835 -2.52516,11.55173 -2.52516,11.55173 1.88306,18.83058 0.23744,7.38927 0.2817,14.78553 0.20923,22.17825 -0.0302,3.97874 -0.0604,7.95749 -0.0915,12.05681 -0.0388,3.06389 -0.0777,6.12778 -0.11769,9.28452 -26.16517,-39.24775 -25.72932,-99.89591 -17.87598,-144.83859 13.32437,-63.5873 47.39919,-123.23646 88.17683,-173.18907 2.20946,-1.10473 4.41891,-2.20945 6.69532,-3.34766 z"
     fill="#bdd91e"
     id="path4"
     style="stroke-width:3.34766" />
  <path
     d="m 314.20279,695.69034 c 2.20946,0 4.41892,0 6.69532,0 0.27619,2.07137 0.55237,4.14273 0.83692,6.27687 1.77545,7.65443 1.77545,7.65443 8.78761,10.2522 9.48728,4.74365 11.85844,11.31109 17.15675,20.29519 3.31418,1.10473 6.62837,2.20946 10.04298,3.34766 0,3.31418 0,6.62837 0,10.04298 2.20946,0 4.41891,0 6.69532,0 13.39064,17.7229 13.39064,17.7229 13.39064,30.12894 1.86423,0.27618 3.72845,0.55236 5.64917,0.83691 18.82431,6.10518 33.84938,23.26049 44.56572,39.335 5.65464,3.67878 5.65464,3.67878 11.92604,6.69532 11.50758,6.69532 11.50758,6.69532 14.85524,16.7383 6.13574,3.76666 6.13574,3.76666 13.39064,6.69532 4.46354,2.23177 8.92709,4.46355 13.39064,6.69532 0,2.20945 0,4.41891 0,6.69532 9.94255,1.65713 9.94255,1.65713 20.08596,3.34763 1.10473,-3.31415 2.20945,-6.62834 3.34766,-10.04295 8.28545,-1.65709 8.28545,-1.65709 16.7383,-3.34766 0,-2.20946 0,-4.41891 0,-6.69532 2.34754,-0.20714 4.69509,-0.41427 7.11377,-0.62769 15.53053,-4.38906 25.08192,-14.82971 36.4058,-26.15359 3.31418,0 6.62837,0 10.04298,0 1.24282,-2.89991 1.24282,-2.89991 2.51075,-5.8584 6.89211,-12.40581 15.90169,-19.8072 27.61819,-27.61819 0,-2.20946 0,-4.41892 0,-6.69532 3.31418,-1.6571 3.31418,-1.6571 6.69532,-3.34766 0,-3.31419 0,-6.62837 0,-10.04298 7.74146,-5.23072 7.74146,-5.23072 16.7383,-10.04298 10.87487,-5.76556 10.87487,-5.76556 13.39063,-16.7383 3.27866,-3.41527 6.62487,-6.76729 10.04298,-10.04298 1.10473,-2.20945 2.20946,-4.41891 3.34766,-6.69532 2.20946,0 4.41891,0 6.69532,0 0,-2.20945 0,-4.41891 0,-6.69532 4.41891,-2.20945 8.83782,-4.41891 13.39064,-6.69532 1.65709,4.97128 1.65709,4.97128 3.34766,10.04298 -8.6663,13.29594 -19.6422,24.92981 -30.12894,36.82426 -2.90422,3.3185 -5.80845,6.63699 -8.80068,10.05605 -34.62193,38.94888 -73.30399,72.65629 -115.06272,103.76439 -3.42639,2.628 -6.85277,5.2561 -10.38298,7.9637 -9.70298,5.4269 -9.70298,5.4269 -18.07213,5.5054 -11.01707,-4.5101 -19.12045,-10.6744 -28.45511,-18.0721 -1.89039,-1.4964 -3.78078,-2.99273 -5.72845,-4.53442 -5.93365,-4.72718 -11.82272,-9.50554 -17.70517,-14.29621 -2.72433,-2.19273 -2.72433,-2.19273 -5.50369,-4.42977 -48.24192,-38.96406 -95.4642,-83.18392 -128.40269,-136.17194 1.10472,-2.20945 2.20945,-4.41891 3.34765,-6.69532 z"
     fill="#2d633f"
     id="path5"
     style="stroke-width:3.34766" />
  <path
     d="m 498.32408,414.48693 c 1.10473,0 2.20945,0 3.34766,0 0.24597,3.95501 0.24597,3.95501 0.49692,7.98992 0.81391,11.85787 1.80605,23.68993 2.85074,35.52966 0.29344,3.76297 0.58688,7.52595 0.88922,11.40296 2.60407,23.77634 8.26136,37.68048 22.92362,56.40022 7.72867,11.24898 12.78839,22.70942 17.82367,35.34658 0.86631,2.12477 1.73262,4.24953 2.62517,6.43869 4.56806,11.84625 6.94469,21.66518 5.95321,34.36091 -2.20945,0 -4.41891,0 -6.69532,0 -0.99657,-2.11209 -1.99315,-4.22418 -3.01992,-6.40027 -4.49565,-9.51716 -9.00225,-19.02909 -13.50915,-28.54093 -1.56863,-3.32497 -3.13725,-6.64994 -4.75341,-10.07567 -1.49958,-3.16098 -2.99916,-6.32197 -4.54419,-9.57875 -1.38495,-2.92769 -2.76991,-5.85538 -4.19683,-8.87179 -2.90666,-6.63537 -2.90666,-6.63537 -6.80075,-10.1811 -4.34623,25.10756 -4.46748,50.34712 -5.08034,75.77349 -0.11436,3.49758 -0.22871,6.99517 -0.34653,10.59874 -0.0839,3.18176 -0.16776,6.36352 -0.25418,9.64169 -1.01427,7.76353 -1.01427,7.76353 -7.70959,14.45885 -6.4525,-6.45249 -4.64865,-18.27539 -5.13918,-27.1082 -0.14388,-2.37302 -0.28775,-4.74603 -0.43598,-7.19096 -0.45776,-7.60597 -0.8938,-15.21302 -1.32939,-22.82028 -0.30588,-5.14581 -0.61317,-10.29153 -0.92192,-15.43716 -0.75519,-12.63781 -1.4909,-25.27663 -2.21651,-37.91617 -13.31107,21.38468 -24.11956,42.05681 -32.88814,65.7109 -1.29892,2.61941 -2.59784,5.23882 -3.93612,7.93761 -4.97127,1.65709 -4.97127,1.65709 -10.04298,3.34766 2.1652,-22.51809 9.6378,-41.29962 19.6675,-61.30402 1.1371,-2.28066 2.27419,-4.56131 3.44574,-6.91108 6.71343,-13.00488 13.74403,-24.73567 23.754,-35.56235 2.20945,0 4.41891,0 6.69532,0 -0.0388,-4.03916 -0.0777,-8.07832 -0.11769,-12.23988 -0.0314,-5.40507 -0.0619,-10.81015 -0.0915,-16.21523 -0.028,-2.64962 -0.0561,-5.29924 -0.085,-8.02915 -0.0704,-17.17075 1.16672,-33.56003 3.64189,-50.55489 z"
     fill="#aac650"
     id="path6"
     style="stroke-width:3.34766" />
  <path
     d="m 648.96876,297.31885 c 36.81367,14.26115 63.39008,78.6845 79.50692,112.14659 22.80883,52.1675 29.73842,106.16239 20.92287,162.3615 -2.20945,-1.10473 -4.41891,-2.20946 -6.69532,-3.34766 0.10519,-3.18311 0.10519,-3.18311 0.2125,-6.43052 1.29296,-45.05718 1.38067,-80.76996 -19.04308,-121.61747 -5.89361,-11.78722 -8.41861,-23.13927 -11.29835,-35.98734 -4.41891,0 -8.83782,0 -13.39064,0 -0.25164,1.87421 -0.50328,3.74841 -0.76254,5.67941 -1.1669,8.50519 -2.39829,16.99982 -3.63126,25.49567 -0.39486,2.94954 -0.78971,5.89907 -1.19653,8.93799 -0.42075,2.83734 -0.84149,5.67468 -1.27499,8.59799 -0.36815,2.61213 -0.7363,5.22427 -1.11561,7.91555 -2.40057,8.12461 -5.71756,11.6043 -12.10503,17.0219 0.55236,-4.00463 1.10473,-8.00927 1.67383,-12.13526 5.74464,-54.95992 -0.88628,-102.26885 -27.87973,-150.71006 -3.92304,-7.88531 -3.92304,-7.88531 -3.92304,-17.92829 z"
     fill="#cae33a"
     id="path7"
     style="stroke-width:3.34766" />
  <path
     d="m 692.48834,434.57289 c 1.10473,0 2.20946,0 3.34766,0 0,16.57091 0,33.14183 0,50.21489 -3.31418,1.10473 -6.62837,2.20946 -10.04298,3.34766 -3.20049,6.33759 -3.20049,6.33759 -5.23072,14.01833 -0.82423,2.71866 -1.64846,5.43733 -2.49767,8.23838 -0.76381,2.59783 -1.52763,5.19567 -2.31459,7.87223 -1.24282,3.65941 -2.48564,7.31882 -3.76612,11.08912 -2.41961,7.43167 -4.52057,14.77688 -6.27686,22.38748 -3.31418,0 -6.62836,0 -10.04298,0 0,3.31418 0,6.62836 0,10.04298 -3.31418,2.20945 -6.62836,4.41891 -10.04298,6.69532 -1.10472,3.31418 -2.20945,6.62836 -3.34766,10.04297 -2.20945,0 -4.41891,0 -6.69532,0 1.10473,3.31419 2.20946,6.62837 3.34766,10.04298 -3.17609,2.34755 -6.35218,4.6951 -9.62452,7.11378 -8.49498,6.9379 -10.30229,9.09403 -13.59986,20.08596 -3.55689,9.62452 -3.55689,9.62452 -14.85524,15.48292 -4.00464,1.38091 -8.00928,2.76182 -12.13527,4.18458 -4.48632,2.18564 -8.96307,4.39299 -13.39064,6.69532 0,2.20945 0,4.41891 0,6.69532 -19.24904,10.04298 -19.24904,10.04298 -26.78128,10.04298 -1.10472,3.31418 -2.20945,6.62836 -3.34766,10.04298 -9.40941,8.39217 -18.60393,14.96373 -30.12893,20.08595 5.17078,-13.7359 15.03565,-21.04739 26.15359,-29.9197 59.95706,-49.54215 109.54108,-106.00388 134.53407,-180.98286 1.64415,-1.50605 3.28829,-3.01211 4.98226,-4.5638 6.70525,-7.25969 7.40498,-13.18411 9.03607,-22.84516 0.53078,-3.01642 1.06157,-6.03285 1.60844,-9.14068 0.36681,-2.30008 0.73361,-4.60016 1.11153,-6.96993 z"
     fill="#709b2b"
     id="path8"
     style="stroke-width:3.34766" />
  <path
     d="m 304.15982,441.26821 c 1.10472,0 2.20945,0 3.34766,0 0.88895,3.06389 1.77792,6.12778 2.69382,9.28452 1.1824,3.97875 2.3648,7.95749 3.58304,12.05681 1.74771,5.94222 1.74771,5.94222 3.53073,12.0045 2.83609,10.39106 2.83609,10.39106 10.27836,16.86906 2.90844,5.782 5.80064,11.57328 8.57511,17.42075 31.66809,66.71152 81.71232,128.02483 142.90649,170.25742 4.55701,3.21062 4.55701,3.21062 9.20607,6.48609 0,2.20946 0,4.41892 0,6.69532 -2.20946,0 -4.41891,0 -6.69532,0 0,-2.20945 0,-4.41891 0,-6.69532 -3.52132,-1.24281 -3.52132,-1.24281 -7.11378,-2.51074 -15.39243,-6.69236 -28.19873,-15.48573 -39.75346,-27.61819 -3.31418,-1.65709 -3.31418,-1.65709 -6.69532,-3.34766 0,-2.20946 0,-4.41891 0,-6.69532 -1.93327,-0.82855 -3.86654,-1.65709 -5.8584,-2.51075 -8.63495,-4.79719 -14.43248,-10.15762 -20.92287,-17.57521 0,-2.20946 0,-4.41891 0,-6.69532 -4.97128,-1.65709 -4.97128,-1.65709 -10.04298,-3.34766 -1.58805,-2.69277 -3.17609,-5.38555 -4.81226,-8.15992 -5.59098,-9.16921 -8.68611,-11.74828 -18.62136,-15.2737 -2.20946,0 -4.41891,0 -6.69532,0 -1.10473,-7.73309 -2.20945,-15.46618 -3.34766,-23.43361 -2.20945,0 -4.41891,0 -6.69532,0 -1.44995,-3.1761 -2.89991,-6.35219 -4.3938,-9.62453 -4.95629,-11.13237 -4.95629,-11.13237 -15.69216,-17.15675 0,2.20945 0,4.41891 0,6.69532 -2.20945,0 -4.41891,0 -6.69532,0 -0.41427,-3.86655 -0.82854,-7.7331 -1.25537,-11.71681 -3.02866,-23.89277 -9.15098,-46.55753 -18.83058,-68.62703 -3.31419,-1.10472 -6.62837,-2.20945 -10.04298,-3.34766 3.31418,-7.73309 6.62836,-15.46618 10.04298,-23.43361 z"
     fill="#b5d43f"
     id="path9"
     style="stroke-width:3.34766" />
  <path
     d="m 725.96494,447.96353 c 9.68905,4.84452 10.13776,10.65242 13.67832,20.76595 7.34383,23.10403 8.71731,44.66368 8.49992,68.78394 -0.0239,6.13602 -0.0239,6.13602 -0.0482,12.39599 -0.74835,33.11417 -4.72499,69.38509 -27.81843,95.23912 -2.15552,1.81892 -2.15552,1.81892 -4.35457,3.67458 1.06157,-3.36165 2.12315,-6.72331 3.21689,-10.18683 3.58274,-12.57117 4.8252,-24.65248 5.57071,-37.72655 0.25029,-4.36281 0.50058,-8.72563 0.75846,-13.22064 0.52121,-13.1263 0.55632,-26.17724 0.40538,-39.30885 0.11157,-8.14494 1.6097,-15.4927 3.4392,-23.42054 2.7348,-19.06976 3.6977,-37.65784 3.34766,-56.91022 -2.20946,-1.10472 -4.41891,-2.20945 -6.69532,-3.34766 0,-5.52363 0,-11.04727 0,-16.73829 z"
     fill="#8bb221"
     id="path10"
     style="stroke-width:3.34766" />
  <path
     d="m 344.33173,297.31885 c 2.20946,1.10473 4.41891,2.20946 6.69532,3.34766 -6.79334,17.34262 -14.41261,34.30561 -21.96902,51.32642 -9.36716,23.90154 -12.59269,45.02783 -12.34449,70.65392 -0.0259,2.66041 -0.0518,5.32082 -0.0785,8.06184 0.0611,18.78667 2.84348,35.92515 7.61069,54.07909 -3.31418,1.65709 -3.31418,1.65709 -6.69532,3.34766 -11.02561,-26.5946 -11.2402,-50.32939 -10.67066,-78.87923 0.0453,-4.33476 0.0906,-8.66952 0.1373,-13.13564 0.11754,-10.61765 0.28218,-21.23233 0.49039,-31.84853 -2.20946,4.41892 -4.41892,8.83783 -6.69532,13.39064 -2.20946,0 -4.41891,0 -6.69532,0 -2.20946,1.10473 -4.41891,2.20946 -6.69532,3.34766 7.55424,-21.15188 20.82856,-38.53293 33.47659,-56.91021 2.59568,-3.81261 2.59568,-3.81261 5.2438,-7.70223 10.60122,-15.28475 10.60122,-15.28475 18.18982,-19.07905 z"
     fill="#daee36"
     id="path11"
     style="stroke-width:3.34766" />
  <path
     d="m 648.96876,297.31885 c 13.85268,5.16327 19.92135,14.19583 28.45511,25.94436 3.78024,5.15252 3.78024,5.15252 7.63685,10.40913 20.81826,29.4681 20.81826,29.4681 20.81826,37.29502 -3.31418,1.10473 -6.62837,2.20946 -10.04298,3.34766 -2.20946,-4.41891 -4.41891,-8.83782 -6.69532,-13.39064 0.81115,2.85703 0.81115,2.85703 1.63868,5.77178 2.94948,13.1492 2.34895,26.41469 2.33667,39.84008 -0.003,3.00051 -0.005,6.00102 -0.008,9.09246 -0.19013,20.50891 -1.47638,39.33023 -7.31484,59.1161 -3.31418,1.6571 -3.31418,1.6571 -6.69532,3.34766 0.55237,-4.00463 1.10473,-8.00927 1.67383,-12.13526 5.74464,-54.95992 -0.88628,-102.26885 -27.87973,-150.71006 -3.92303,-7.88531 -3.92303,-7.88531 -3.92303,-17.92829 z"
     fill="#d4e83e"
     id="path12"
     style="stroke-width:3.34766" />
  <path
     d="m 528.45301,401.09629 c 1.10473,2.20946 2.20946,4.41891 3.34766,6.69532 3.7673,-0.31718 3.7673,-0.31718 7.6107,-0.64076 14.07544,0.9881 18.81145,8.26878 28.12819,18.24213 46.83199,55.25388 46.83199,55.25388 54.64793,89.52374 -3.31419,0 -6.62837,0 -10.04298,0 -4.57688,-6.40763 -4.57688,-6.40763 -9.62452,-15.48293 -13.12261,-21.67473 -29.49714,-39.08242 -46.99801,-57.28944 -27.06897,-28.37603 -27.06897,-28.37603 -27.06897,-41.04806 z"
     fill="#c6dd4e"
     id="path13"
     style="stroke-width:3.34766" />
  <path
     d="m 458.15216,407.79161 c 3.31418,1.10473 6.62837,2.20946 10.04298,3.34766 -1.67623,13.78234 -8.47569,18.92133 -18.83059,27.61819 -24.01127,20.93729 -42.32613,43.01339 -59.57788,69.77778 -1.74339,2.10589 -3.48679,4.21178 -5.28302,6.38148 -3.31418,0 -6.62837,0 -10.04298,0 11.72214,-31.0292 32.11727,-72.81865 63.60553,-87.03915 2.34755,-2.34755 4.6951,-4.69509 7.11378,-7.11378 2.07136,-2.07136 4.14273,-4.14273 6.27686,-6.27686 2.20946,0 4.41891,0 6.69532,0 0,-2.20946 0,-4.41891 0,-6.69532 z"
     fill="#c5da55"
     id="path14"
     style="stroke-width:3.34766" />
  <path
     d="m 561.92961,307.36183 c 17.93301,1.08685 27.99201,11.30027 40.17192,23.43362 7.60307,9.26244 14.39874,18.96701 21.1321,28.87356 1.75419,2.51153 3.50837,5.02306 5.31572,7.6107 20.41941,29.49179 20.41941,29.49179 20.41941,43.85956 -13.94159,-5.10447 -20.69375,-15.18568 -29.08279,-26.78127 -12.90566,-17.38703 -26.5153,-33.49864 -41.51883,-49.15567 -7.18583,-8.71411 -11.7388,-17.60347 -16.43753,-27.8405 z"
     fill="#dbeb5c"
     id="path15"
     style="stroke-width:3.34766" />
  <path
     d="m 692.48834,434.57289 c 1.10473,0 2.20946,0 3.34766,0 0,16.57091 0,33.14183 0,50.21489 -3.31418,1.10473 -6.62837,2.20946 -10.04298,3.34766 -3.20049,6.33759 -3.20049,6.33759 -5.23072,14.01833 -0.82423,2.71866 -1.64846,5.43733 -2.49767,8.23838 -0.76381,2.59783 -1.52763,5.19567 -2.31459,7.87223 -1.24282,3.65941 -2.48564,7.31882 -3.76612,11.08912 -2.41961,7.43167 -4.52057,14.77688 -6.27686,22.38748 -3.31418,0 -6.62836,0 -10.04298,0 0,3.31418 0,6.62836 0,10.04298 -9.42483,8.90123 -17.16658,14.81795 -30.12893,16.73829 4.80498,-10.05349 10.29738,-19.60352 15.95777,-29.1964 12.0456,-20.48847 22.18731,-40.78507 30.55639,-63.1127 3.70073,-8.12069 3.70073,-8.12069 8.93145,-13.16833 6.65668,-6.90992 7.20772,-13.00357 8.78761,-22.36132 0.53078,-3.01642 1.06157,-6.03285 1.60844,-9.14068 0.55021,-3.45012 0.55021,-3.45012 1.11153,-6.96993 z"
     fill="#a8c736"
     id="path16"
     style="stroke-width:3.34766" />
  <path
     d="m 263.9879,461.35417 c 3.6225,10.8675 2.61589,12.97005 0,23.43361 1.10473,3.31419 2.20945,6.62837 3.34766,10.04298 -3.31418,1.65709 -3.31418,1.65709 -6.69532,3.34766 0,14.36146 0,28.72292 0,43.51958 2.20946,1.10473 4.41891,2.20945 6.69532,3.34766 -0.62141,3.72845 -1.24282,7.45691 -1.88306,11.29835 -2.52516,11.55173 -2.52516,11.55173 1.88306,18.83058 0.23744,7.38927 0.2817,14.78553 0.20923,22.17825 -0.0302,3.97874 -0.0604,7.95749 -0.0915,12.05681 -0.0583,4.59583 -0.0583,4.59583 -0.11769,9.28452 -24.28331,-36.42497 -21.72356,-85.36124 -20.08596,-127.21107 2.20946,0 4.41891,0 6.69532,0 0.41427,-4.34986 0.82855,-8.69973 1.25537,-13.18141 0.70615,-7.41454 0.70615,-7.41454 2.09229,-13.59987 2.20946,-1.10472 4.41891,-2.20945 6.69532,-3.34765 z"
     fill="#9dbb35"
     id="path17"
     style="stroke-width:3.34766" />
  <path
     d="m 414.63258,310.70949 c 0.96664,2.14041 1.93328,4.28082 2.92921,6.48609 3.1911,7.4136 3.1911,7.4136 10.46143,10.25221 -1.86422,1.74771 -3.72845,3.49542 -5.64917,5.2961 -17.10737,16.50052 -31.55999,33.53286 -45.15418,53.0264 -6.20889,8.77487 -12.42892,17.26562 -19.4975,25.36898 -2.20945,0 -4.41891,0 -6.69532,0 1.83318,-15.29563 8.39892,-26.31768 16.7383,-38.91653 1.32238,-2.03091 2.64476,-4.06182 4.00722,-6.15427 12.97412,-19.56493 27.51904,-37.58811 42.86001,-55.35898 z"
     fill="#e2f164"
     id="path18"
     style="stroke-width:3.34766" />
  <path
     d="m 484.93344,173.45543 c 0,2.20946 0,4.41891 0,6.69532 2.20945,1.10473 4.41891,2.20946 6.69532,3.34766 -2.43385,1.02274 -4.86771,2.04548 -7.37531,3.09921 -37.64961,17.1354 -63.88331,43.51125 -92.03449,73.41313 -4.36765,3.8315 -4.36765,3.8315 -11.06297,3.8315 1.78267,-13.41699 5.31915,-20.81802 14.22755,-30.96585 1.95054,-2.29576 3.90107,-4.59152 5.91071,-6.95685 7.77849,-6.55353 13.39739,-7.774 23.38131,-8.94453 1.10473,-3.31418 2.20946,-6.62837 3.34766,-10.04298 2.20946,0 4.41891,0 6.69532,0 0,-2.20946 0,-4.41891 0,-6.69532 5.52364,-1.10473 11.04728,-2.20946 16.7383,-3.34766 1.10473,-3.31418 2.20946,-6.62837 3.34766,-10.04298 17.59913,-13.39065 17.59913,-13.39065 30.12894,-13.39065 z"
     fill="#edf770"
     id="path19"
     style="stroke-width:3.34766" />
  <path
     d="m 488.2811,501.52608 c 2.20945,0 4.41891,0 6.69532,0 0,9.94255 0,19.8851 0,30.12894 -3.31419,0 -6.62837,0 -10.04298,0 -1.81676,3.63352 -3.63352,7.26704 -5.50533,11.01066 -10.43964,20.87928 -20.87929,41.75857 -31.31893,62.63785 -2.20945,0 -4.41891,0 -6.69532,0 2.1652,-22.51809 9.6378,-41.29962 19.6675,-61.30402 1.1371,-2.28066 2.27419,-4.56131 3.44574,-6.91108 6.71343,-13.00488 13.74403,-24.73567 23.754,-35.56235 z"
     fill="#abbd5f"
     id="path20"
     style="stroke-width:3.34766" />
  <path
     d="m 297.4645,367.6197 c 3.34766,10.04298 3.34766,10.04298 1.09845,16.41138 -1.19104,2.24829 -2.38207,4.49658 -3.6092,6.813 -1.24282,2.37344 -2.48564,4.74688 -3.76612,7.19224 -3.76611,6.40763 -3.76611,6.40763 -9.62452,13.31218 -6.29831,9.76239 -4.83679,18.61457 -4.18457,29.91971 -2.20946,0 -4.41891,0 -6.69532,0 -0.51784,3.52132 -0.51784,3.52132 -1.04614,7.11377 -2.61821,10.94884 -7.23699,19.70827 -12.3445,29.71048 -2.29772,7.48286 -2.29772,7.48286 -3.34766,13.39064 -2.20946,-1.10473 -4.41891,-2.20945 -6.69532,-3.34766 6.12608,-28.61371 13.43276,-55.9549 25.10745,-82.85457 0.9518,-2.23104 1.9036,-4.46207 2.88425,-6.76071 5.69233,-12.63304 11.7491,-21.80453 22.2232,-30.90046 z"
     fill="#b4d035"
     id="path21"
     style="stroke-width:3.34766" />
  <path
     d="m 742.70323,521.61204 c 1.10473,0 2.20946,0 3.34766,0 2.44307,41.62256 3.65274,90.10052 -25.77436,123.65418 -1.43701,1.17377 -2.87402,2.34755 -4.35457,3.55689 1.44995,-4.557 1.44995,-4.557 2.9292,-9.20607 4.25362,-14.73789 6.39028,-29.7219 8.77453,-44.85341 1.68691,-9.54606 1.68691,-9.54606 5.24379,-21.68132 3.50223,-12.60802 4.68578,-24.60894 5.66226,-37.62194 0.82384,-7.15301 0.82384,-7.15301 4.17149,-13.84833 z"
     fill="#8cad36"
     id="path22"
     style="stroke-width:3.34766" />
  <path
     d="m 719.26962,421.18225 c 10.04298,12.13527 10.04298,12.13527 10.04298,23.43362 2.20945,0 4.41891,0 6.69532,0 0,2.20945 0,4.41891 0,6.69532 2.20945,0 4.41891,0 6.69531,0 12.2793,39.29372 13.05976,79.94246 6.69532,120.51575 -2.20945,-1.10473 -4.41891,-2.20946 -6.69532,-3.34766 0.0701,-2.12207 0.14025,-4.24415 0.2125,-6.43052 1.43499,-50.00675 -0.59973,-85.88307 -23.64611,-130.82353 0,-3.31419 0,-6.62837 0,-10.04298 z"
     fill="#b0c83b"
     id="path23"
     style="stroke-width:3.34766" />
  <path
     d="m 394.54663,605.30353 c 18.16455,15.29011 35.55148,31.25702 52.72564,47.64531 9.83016,9.24869 19.6171,17.61201 30.75662,25.25783 3.38323,2.45543 6.76646,4.91086 10.25221,7.44069 0,2.20946 0,4.41892 0,6.69532 -2.20946,0 -4.41891,0 -6.69532,0 0,-2.20945 0,-4.41891 0,-6.69532 -2.34755,-0.82854 -4.69509,-1.65709 -7.11378,-2.51074 -15.39243,-6.69236 -28.19873,-15.48573 -39.75346,-27.61819 -2.20945,-1.10473 -4.41891,-2.20946 -6.69532,-3.34766 0,-2.20946 0,-4.41891 0,-6.69532 -2.89991,-1.24282 -2.89991,-1.24282 -5.8584,-2.51075 -8.63495,-4.79719 -14.43248,-10.15762 -20.92287,-17.57521 0,-2.20946 0,-4.41891 0,-6.69532 -3.31419,-1.10473 -6.62837,-2.20945 -10.04298,-3.34766 1.10472,-3.31418 2.20945,-6.62836 3.34766,-10.04298 z"
     fill="#87ae46"
     id="path24"
     style="stroke-width:3.34766" />
  <path
     d="m 505.0194,163.41245 c 42.80014,4.13999 72.57613,40.85304 100.42979,70.30087 -12.48078,0 -16.66415,-2.81646 -26.78128,-10.04298 -5.59284,-6.68413 -11.17291,-13.37896 -16.7383,-20.08596 -6.75122,-3.79459 -6.75122,-3.79459 -13.39064,-6.69532 -2.07136,-2.14041 -4.14273,-4.28082 -6.27686,-6.48609 -8.36146,-8.11554 -16.64571,-12.11028 -27.19973,-16.94754 -4.46355,-2.23177 -8.9271,-4.46355 -13.39064,-6.69532 1.10473,-1.10472 2.20945,-2.20945 3.34766,-3.34766 z"
     fill="#d8e648"
     id="path25"
     style="stroke-width:3.34766" />
  <path
     d="m 417.98024,441.26821 c 2.20946,1.10472 4.41892,2.20945 6.69532,3.34766 -6.62836,9.94255 -6.62836,9.94255 -13.39064,20.08595 2.20946,1.10473 4.41892,2.20946 6.69532,3.34766 -12.22529,18.14417 -23.93207,35.45141 -40.17191,50.2149 -1.10473,-2.20946 -2.20946,-4.41891 -3.34766,-6.69532 9.38131,-26.19591 26.77236,-48.44221 43.51957,-70.30085 z"
     fill="#cfde64"
     id="path26"
     style="stroke-width:3.34766" />
  <path
     d="m 314.20279,695.69034 c 2.20946,0 4.41892,0 6.69532,0 0.27619,2.07137 0.55237,4.14273 0.83692,6.27687 1.77545,7.65443 1.77545,7.65443 8.78761,10.2522 9.48728,4.74365 11.85844,11.31109 17.15675,20.29519 3.31418,1.10473 6.62837,2.20946 10.04298,3.34766 0,3.31418 0,6.62837 0,10.04298 2.20946,0 4.41891,0 6.69532,0 0,6.62837 0,13.25673 0,20.08596 -10.58472,-10.25395 -20.65856,-20.87397 -30.54739,-31.80277 -2.21809,-2.45111 -4.43618,-4.90223 -6.72148,-7.42762 -6.4019,-7.82157 -11.6996,-15.36714 -16.29368,-24.37515 1.10472,-2.20945 2.20945,-4.41891 3.34765,-6.69532 z"
     fill="#356f39"
     id="path27"
     style="stroke-width:3.34766" />
  <path
     d="m 659.01174,521.61204 c 2.20946,0 4.41891,0 6.69532,0 3.76612,22.5967 3.76612,22.5967 0,30.12894 -3.31418,0 -6.62836,0 -10.04298,0 0,3.31418 0,6.62836 0,10.04298 -9.42483,8.90123 -17.16658,14.81795 -30.12893,16.73829 5.91909,-12.45477 12.94166,-24.20962 20.08595,-35.98734 1.19104,-2.01526 2.38207,-4.03053 3.6092,-6.10686 3.07334,-5.05725 6.40855,-9.95342 9.78144,-14.81601 z"
     fill="#a3c245"
     id="path28"
     style="stroke-width:3.34766" />
  <path
     d="m 672.40238,705.73332 c 2.20946,1.10473 4.41891,2.20946 6.69532,3.34766 -4.86229,15.1118 -12.742,24.58809 -23.43362,36.19657 -2.96895,3.26672 -5.93791,6.53343 -8.99683,9.89914 -7.74147,7.46685 -7.74147,7.46685 -14.43678,7.46685 0,-4.41891 0,-8.83782 0,-13.39064 2.20945,-1.10473 4.41891,-2.20946 6.69531,-3.34766 1.10473,-3.31418 2.20946,-6.62837 3.34766,-10.04298 3.27866,-3.41527 6.62487,-6.76729 10.04298,-10.04298 1.10473,-2.20945 2.20946,-4.41891 3.34766,-6.69532 2.20946,0 4.41891,0 6.69532,0 0,-2.20945 0,-4.41891 0,-6.69532 3.31419,-2.20945 6.62837,-4.41891 10.04298,-6.69532 z"
     fill="#3d7042"
     id="path29"
     style="stroke-width:3.34766" />
  <path
     d="m 267.33556,591.91289 c 1.10473,0 2.20945,0 3.34766,0 1.10473,5.52364 2.20945,11.04728 3.34766,16.7383 2.20945,0 4.41891,0 6.69532,0 1.10473,4.41891 2.20945,8.83782 3.34766,13.39064 2.20945,-1.10473 4.41891,-2.20945 6.69532,-3.34766 -0.31934,2.2224 -0.63867,4.4448 -0.96769,6.73455 -3.06006,22.44518 -3.06006,22.44518 4.31535,43.48035 -2.20946,0 -4.41891,0 -6.69532,0 C 272.0138,642.6334 264.0802,622.53738 267.33556,591.91289 Z"
     fill="#6e9436"
     id="path30"
     style="stroke-width:3.34766" />
  <path
     d="m 310.85514,360.92438 c 7.7631,10.95968 6.14,18.50086 4.13226,31.24046 -2.69306,30.65606 1.33531,63.04351 9.25837,92.62294 -3.31418,1.65709 -3.31418,1.65709 -6.69532,3.34766 -10.07518,-23.93425 -11.38742,-45.38082 -10.87989,-71.13777 0.0172,-3.55584 0.0345,-7.11168 0.0523,-10.77527 0.15676,-15.59767 0.69071,-30.03516 4.13227,-45.29802 z"
     fill="#d2eb3f"
     id="path31"
     style="stroke-width:3.34766" />
  <path
     d="m 377.80833,357.57673 c 4.41891,2.20945 8.83782,4.41891 13.39064,6.69531 -3.67996,5.93836 -7.38027,11.8641 -11.08913,17.78445 -2.05841,3.30122 -4.11683,6.60246 -6.23763,10.00374 -4.99963,7.39773 -9.27858,13.4396 -16.14984,19.07904 -2.20945,0 -4.41891,0 -6.69532,0 1.88958,-14.55775 7.2118,-24.03043 15.2737,-36.19656 2.14472,-3.26671 4.28945,-6.53343 6.49917,-9.89913 2.47916,-3.6961 2.47916,-3.6961 5.00841,-7.46685 z"
     fill="#e3f384"
     id="path32"
     style="stroke-width:3.34766" />
  <path
     d="m 253.94492,535.00268 c 4.41891,3.31418 8.83782,6.62836 13.39064,10.04298 -0.93211,5.59268 -0.93211,5.59268 -1.88306,11.29835 -2.52516,11.55173 -2.52516,11.55173 1.88306,18.83058 0.23744,7.38927 0.2817,14.78553 0.20923,22.17825 -0.0302,3.97874 -0.0604,7.95749 -0.0915,12.05681 -0.0388,3.06389 -0.0777,6.12778 -0.11769,9.28452 -6.80964,-10.21446 -9.30391,-17.70971 -12.3445,-29.50125 -0.91053,-3.4048 -1.82107,-6.80961 -2.7592,-10.31759 -1.76738,-11.24056 -0.53979,-19.39919 1.71306,-30.48201 0,-4.41891 0,-8.83782 0,-13.39064 z"
     fill="#88a835"
     id="path33"
     style="stroke-width:3.34766" />
  <path
     d="m 491.62876,166.76011 c 1.10473,3.31419 2.20945,6.62837 3.34766,10.04298 -2.89991,-0.27618 -5.79982,-0.55236 -8.78761,-0.83691 -13.96627,1.03453 -20.51884,5.63625 -31.38431,14.22756 -1.10473,2.20946 -2.20945,4.41891 -3.34766,6.69532 -8.57838,2.09229 -8.57838,2.09229 -16.7383,3.34766 0,2.20946 0,4.41891 0,6.69532 -6.55897,5.7391 -13.25272,11.32865 -20.08596,16.7383 0,-12.54958 2.63454,-14.125 11.29836,-22.80593 18.34808,-17.63112 39.06297,-35.99665 65.69782,-34.1043 z"
     fill="#dcea4f"
     id="path34"
     style="stroke-width:3.34766" />
  <path
     d="m 608.79685,357.57673 c 15.65255,4.5687 21.11745,11.1444 29.50125,24.89821 2.02389,3.24082 4.04779,6.48164 6.13302,9.82067 4.53764,8.80068 4.53764,8.80068 4.53764,18.84366 -16.29721,-6.91397 -24.24145,-18.80901 -33.47659,-33.47659 -4.60304,-11.71681 -4.60304,-11.71681 -6.69532,-20.08595 z"
     fill="#dded71"
     id="path35"
     style="stroke-width:3.34766" />
  <path
     d="m 347.67939,555.08864 c 14.74939,4.58984 21.5509,10.90509 30.96585,23.01516 2.29577,2.89127 4.59153,5.78256 6.95686,8.76145 5.09981,7.64971 7.5265,12.81899 8.94453,21.78594 -1.8556,-1.20829 -3.7112,-2.41659 -5.62303,-3.6615 -2.42522,-1.55352 -4.85044,-3.10705 -7.34915,-4.70765 -2.40797,-1.55352 -4.81593,-3.10704 -7.29686,-4.70764 -6.23976,-4.2084 -6.23976,-4.2084 -13.20756,-3.66151 -1.10473,-7.73309 -2.20945,-15.46618 -3.34766,-23.43361 -2.20945,0 -4.41891,0 -6.69532,0 -1.10473,-4.41892 -2.20945,-8.83783 -3.34766,-13.39064 z"
     fill="#8eb43a"
     id="path36"
     style="stroke-width:3.34766" />
  <path
     d="m 494.97642,468.04948 c 2.20945,0 4.41891,0 6.69532,0 0.41845,25.94437 0.41845,25.94437 -3.34766,33.4766 2.20945,1.10473 4.41891,2.20946 6.69532,3.34766 -1.10473,2.20946 -2.20946,4.41891 -3.34766,6.69532 2.20945,0 4.41891,0 6.69532,0 -0.48332,2.34755 -0.96664,4.69509 -1.4646,7.11378 -1.93255,9.87747 -3.61364,19.77697 -5.23072,29.71048 -3.31419,0 -6.62837,0 -10.04298,0 1.10473,-26.51347 2.20945,-53.02693 3.34766,-80.34384 z"
     fill="#9cb43f"
     id="path37"
     style="stroke-width:3.34766" />
  <path
     d="m 498.32408,414.48693 c 1.10473,0 2.20945,0 3.34766,0 0.16398,2.63667 0.32796,5.27335 0.49692,7.98992 1.62054,23.60972 4.28995,46.73753 8.19915,70.07855 1.34691,8.97068 1.34691,8.97068 1.34691,19.01366 -3.31419,0 -6.62837,0 -10.04298,0 -4.34114,-15.43516 -2.38049,-27.91413 0,-43.51958 -2.20946,0 -4.41891,0 -6.69532,0 1.10473,-17.67564 2.20945,-35.35128 3.34766,-53.56255 z"
     fill="#b1c946"
     id="path38"
     style="stroke-width:3.34766" />
  <path
     d="m 568.62493,210.2797 c 1.72614,1.93327 3.45228,3.86655 5.23072,5.8584 6.85456,6.32729 11.83019,9.77875 19.87673,14.01833 11.17115,6.11524 18.32591,12.62285 25.10745,23.64284 -1.10473,3.31419 -2.20946,6.62837 -3.34766,10.04298 -17.70953,-14.75794 -34.10624,-30.38201 -50.2149,-46.86723 1.10473,-2.20946 2.20946,-4.41891 3.34766,-6.69532 z"
     fill="#e9f585"
     id="path39"
     style="stroke-width:3.34766" />
  <path
     d="m 585.36323,816.20609 c -5.28351,4.90035 -10.58805,9.77802 -15.90138,14.64601 -2.9517,2.71867 -5.90339,5.43734 -8.94453,8.23838 -7.28501,6.115 -13.34487,10.25035 -22.02133,13.93987 0,-4.41891 0,-8.83782 0,-13.39064 9.62453,-8.78761 9.62453,-8.78761 20.08596,-16.7383 2.20946,-2.20945 4.41891,-4.41891 6.69532,-6.69532 10.04298,-3.34766 10.04298,-3.34766 20.08596,0 z"
     fill="#306544"
     id="path40"
     style="stroke-width:3.34766" />
  <path
     d="m 571.97259,632.08481 c 3.31418,0 6.62837,0 10.04298,0 0,3.31418 0,6.62837 0,10.04298 -2.20946,0 -4.41891,0 -6.69532,0 0,2.20945 0,4.41891 0,6.69532 -19.24904,10.04298 -19.24904,10.04298 -26.78128,10.04298 -1.10472,3.31418 -2.20945,6.62836 -3.34766,10.04298 -9.40941,8.39217 -18.60393,14.96373 -30.12893,20.08595 5.33173,-14.80259 16.63464,-22.63152 28.4551,-32.22122 14.62966,-11.89279 14.62966,-11.89279 28.45511,-24.68899 z"
     fill="#759e3e"
     id="path41"
     style="stroke-width:3.34766" />
  <path
     d="m 725.96494,447.96353 c 9.8877,4.94385 10.29557,11.45346 13.80909,21.75978 5.87667,18.19591 7.54331,32.89213 6.27686,51.88873 -2.20945,-3.31418 -4.41891,-6.62837 -6.69531,-10.04298 -2.20946,2.20946 -4.41892,4.41891 -6.69532,6.69532 0,-16.57092 0,-33.14183 0,-50.2149 -2.20946,-1.10472 -4.41891,-2.20945 -6.69532,-3.34766 0,-5.52363 0,-11.04727 0,-16.73829 z"
     fill="#9ebc26"
     id="path42"
     style="stroke-width:3.34766" />
  <path
     d="m 508.36706,384.358 c 4.33992,1.98828 8.66035,4.01913 12.97218,6.06763 2.40796,1.1263 4.81592,2.2526 7.29685,3.41304 6.51224,3.90996 6.51224,3.90996 13.20756,13.95294 -3.31418,1.10473 -6.62836,2.20946 -10.04298,3.34766 4.41892,4.41891 8.83783,8.83782 13.39064,13.39064 -1.10472,2.20945 -2.20945,4.41891 -3.34766,6.69532 -29.1874,-22.70132 -29.1874,-22.70132 -32.63968,-37.66117 -0.27618,-3.038 -0.55236,-6.07601 -0.83691,-9.20606 z"
     fill="#cce449"
     id="path43"
     style="stroke-width:3.34766" />
  <path
     d="m 511.71472,682.29971 c 10.46143,1.25537 10.46143,1.25537 20.08595,3.34765 -7.88422,11.82634 -13.72754,14.86447 -26.78127,20.08596 -7.95069,-1.04614 -7.95069,-1.04614 -13.39064,-3.34766 -1.10473,2.20946 -2.20946,4.41891 -3.34766,6.69532 -2.20946,-5.52364 -4.41891,-11.04727 -6.69532,-16.7383 3.72846,-0.41427 7.45691,-0.82854 11.29835,-1.25537 12.23917,-0.90916 12.23917,-0.90916 18.83059,-8.7876 z"
     fill="#4e8836"
     id="path44"
     style="stroke-width:3.34766" />
  <path
     d="m 722.61728,608.65119 c 1.10472,0 2.20945,0 3.34766,0 1.51098,24.93118 -8.63293,45.54825 -20.08596,66.9532 -3.31418,-1.10473 -6.62837,-2.20946 -10.04298,-3.34766 5.45658,-13.85336 11.27008,-27.5435 17.15676,-41.21806 0.92779,-2.15983 1.85559,-4.31966 2.81151,-6.54494 2.26914,-5.28164 4.54082,-10.5622 6.81301,-15.84254 z"
     fill="#6e963d"
     id="path45"
     style="stroke-width:3.34766" />
  <path
     d="m 491.62876,391.05331 c -2.20946,1.44996 -4.41891,2.89991 -6.69532,4.39381 -2.20946,1.86422 -4.41891,3.72845 -6.69532,5.64917 0,3.31418 0,6.62837 0,10.04298 -1.10473,2.20946 -2.20946,4.41891 -3.34766,6.69532 -2.20946,0 -4.41891,0 -6.69532,0 0,-2.20946 0,-4.41891 0,-6.69532 -16.67177,5.05205 -27.59342,15.25401 -40.17192,26.78128 9.58099,-21.31186 38.27552,-55.31057 63.60554,-46.86724 z"
     fill="#cde544"
     id="path46"
     style="stroke-width:3.34766" />
  <path
     d="m 682.44536,357.57673 c 6.06763,1.67383 6.06763,1.67383 13.39064,6.69531 5.33105,10.52827 10.04298,21.57738 10.04298,33.47659 2.20945,0 4.41891,0 6.69532,0 0,2.20946 0,4.41891 0,6.69532 -4.41891,0 -8.83782,0 -13.39064,0 -2.20946,4.41891 -4.41891,8.83782 -6.69532,13.39064 -0.24597,-4.42107 -0.24597,-4.42107 -0.49692,-8.93145 -0.25029,-3.88812 -0.50058,-7.77625 -0.75845,-11.78219 -0.23303,-3.84498 -0.46606,-7.68995 -0.70615,-11.65143 -1.30277,-10.4836 -3.66585,-18.36153 -8.08146,-27.89279 z"
     fill="#c3df15"
     id="path47"
     style="stroke-width:3.34766" />
  <path
     d="m 287.42152,642.12779 c 0.82854,1.86423 1.65709,3.72845 2.51074,5.64917 4.91355,9.09008 11.101,16.43605 17.57522,24.47977 6.27686,8.57837 6.27686,8.57837 10.04297,16.73829 -3.11227,7.20532 -3.11227,7.20532 -6.69531,13.39064 -3.302,-4.72578 -6.57418,-9.47241 -9.83376,-14.22755 -1.82539,-2.64099 -3.65078,-5.28198 -5.53148,-8.003 -4.4194,-7.39423 -6.48609,-12.91532 -8.06838,-21.28902 -0.69046,-2.41659 -1.38091,-4.83319 -2.09229,-7.32301 -0.41427,-2.00232 -0.82855,-4.00464 -1.25537,-6.06763 1.10473,-1.10473 2.20945,-2.20946 3.34766,-3.34766 z"
     fill="#5e863c"
     id="path48"
     style="stroke-width:3.34766" />
  <path
     d="m 498.32408,180.15075 c 3.31418,1.10473 6.62836,2.20946 10.04298,3.34766 0,23.19929 0,46.39857 0,70.30086 -2.20946,0 -4.41891,0 -6.69532,0 -1.10473,-24.304 -2.20946,-48.60801 -3.34766,-73.64852 z"
     fill="#eefa4e"
     id="path49"
     style="stroke-width:3.34766" />
  <path
     d="m 297.4645,367.6197 c 3.34766,10.04298 3.34766,10.04298 1.33383,16.05831 -8.25408,15.75205 -17.44016,29.96629 -28.11511,44.19956 -2.20946,-1.10473 -4.41891,-2.20946 -6.69532,-3.34766 3.03072,-6.99087 6.10862,-13.9613 9.20606,-20.92287 1.70888,-3.88381 3.41775,-7.76762 5.17841,-11.76912 5.38455,-10.22569 10.47766,-16.65247 19.09213,-24.21822 z"
     fill="#caea3b"
     id="path50"
     style="stroke-width:3.34766" />
  <path
     d="m 592.05855,471.39714 c 15.05118,7.69283 21.04821,12.98876 26.36282,29.29203 1.32559,4.72337 2.60505,9.46107 3.76612,14.22755 -3.31419,0 -6.62837,0 -10.04298,0 -5.37457,-6.11994 -5.37457,-6.11994 -10.67067,-14.22755 -1.7736,-2.64099 -3.54721,-5.28198 -5.37456,-8.003 -4.04073,-7.89839 -4.04073,-7.89839 -4.04073,-21.28903 z"
     fill="#b5ca67"
     id="path51"
     style="stroke-width:3.34766" />
  <path
     d="m 648.96876,297.31885 c 15.23239,5.07746 21.76171,17.30375 30.12894,30.12894 -2.20945,0 -4.41891,0 -6.69532,0 0,3.31418 0,6.62836 0,10.04298 -10.04298,-3.34766 -10.04298,-3.34766 -13.95294,-9.17991 -1.1263,-2.35618 -2.25261,-4.71236 -3.41304,-7.13993 -1.1522,-2.33892 -2.3044,-4.67784 -3.49151,-7.08763 -2.57613,-6.72147 -2.57613,-6.72147 -2.57613,-16.76445 z"
     fill="#ecf86b"
     id="path52"
     style="stroke-width:3.34766" />
  <path
     d="m 344.33173,297.31885 c 2.20946,1.10473 4.41891,2.20946 6.69532,3.34766 -4.45952,12.0064 -9.27021,23.02127 -16.7383,33.4766 -3.31418,0 -6.62836,0 -10.04298,0 -1.10472,-3.31419 -2.20945,-6.62837 -3.34766,-10.04298 3.0992,-5.98917 3.0992,-5.98917 7.74147,-12.13527 1.50605,-2.04547 3.0121,-4.09094 4.5638,-6.1984 4.43303,-5.09995 4.43303,-5.09995 11.12835,-8.44761 z"
     fill="#e2f16d"
     id="path53"
     style="stroke-width:3.34766" />
  <path
     d="m 618.83983,581.86991 c 2.20945,0 4.41891,0 6.69532,0 0,2.20946 0,4.41892 0,6.69532 -2.20946,0 -4.41891,0 -6.69532,0 -2.20946,5.52364 -4.41891,11.04728 -6.69532,16.7383 -2.20946,0 -4.41891,0 -6.69532,0 -0.20714,2.55468 -0.41428,5.10937 -0.62769,7.74147 -2.71997,8.99683 -2.71997,8.99683 -10.67066,15.27369 -8.78761,3.76612 -8.78761,3.76612 -18.83059,0.41846 2.30008,-2.26124 4.60015,-4.52248 6.96993,-6.85224 3.01643,-2.98622 6.03285,-5.97244 9.14068,-9.04914 4.4858,-4.42755 4.4858,-4.42755 9.06222,-8.94453 8.24194,-8.17721 8.24194,-8.17721 13.99217,-16.42446 1.43701,-1.84696 2.87402,-3.69393 4.35458,-5.59687 z"
     fill="#8bb43e"
     id="path54"
     style="stroke-width:3.34766" />
  <path
     d="m 689.14068,401.09629 c 1.10473,0 2.20946,0 3.34766,0 0.76617,24.77291 1.37784,49.87755 -6.69532,73.64851 -2.20946,1.10473 -4.41891,2.20946 -6.69532,3.34766 1.02434,-11.57936 2.07854,-23.15581 3.13843,-34.73197 0.29129,-3.29692 0.58257,-6.59384 0.88268,-9.99067 0.29129,-3.1502 0.58258,-6.3004 0.88269,-9.54606 0.26297,-2.91016 0.52593,-5.82032 0.79686,-8.81866 0.99466,-7.21349 0.99466,-7.21349 4.34232,-13.90881 z"
     fill="#cbe534"
     id="path55"
     style="stroke-width:3.34766" />
  <path
     d="m 498.32408,360.92438 c 1.10473,0 2.20945,0 3.34766,0 0,7.7331 0,15.46619 0,23.43362 2.20945,0 4.41891,0 6.69532,0 0.41427,3.24513 0.82854,6.49027 1.25537,9.83374 1.03568,5.07485 1.03568,5.07485 2.09229,10.25221 2.20945,1.10473 4.41891,2.20946 6.69532,3.34766 -7.9507,2.09229 -7.9507,2.09229 -16.7383,3.34766 -2.20946,-2.20946 -4.41891,-4.41891 -6.69532,-6.69532 0.0785,-10.17375 0.0785,-10.17375 1.25537,-22.17823 0.37112,-3.97875 0.74224,-7.9575 1.1246,-12.05681 0.31934,-3.0639 0.63868,-6.12779 0.96769,-9.28453 z"
     fill="#c8de25"
     id="path56"
     style="stroke-width:3.34766" />
  <path
     d="m 561.92961,307.36183 c 17.9151,1.08576 27.728,11.70692 40.17192,23.43362 -1.10473,2.20945 -2.20946,4.41891 -3.34766,6.69532 -25.1332,-7.41636 -25.1332,-7.41636 -33.4766,-20.71365 -1.10473,-3.10704 -2.20945,-6.21409 -3.34766,-9.41529 z"
     fill="#d8eb4d"
     id="path57"
     style="stroke-width:3.34766" />
  <path
     d="m 665.70706,337.49077 c 8.28546,3.31418 8.28546,3.31418 16.7383,6.69532 -3.31418,1.65709 -3.31418,1.65709 -6.69532,3.34766 1.24713,2.66688 2.49427,5.33376 3.7792,8.08146 1.58373,3.54721 3.16745,7.09442 4.79918,10.74912 1.59236,3.49543 3.18472,6.99086 4.82534,10.59221 3.69225,11.90207 2.98482,18.87935 -0.0131,30.83507 -9.4741,-9.4741 -10.66999,-20.60096 -13.59987,-33.26736 -4.37123,-18.66576 -4.37123,-18.66576 -9.83375,-37.03348 z"
     fill="#e0f83b"
     id="path58"
     style="stroke-width:3.34766" />
  <path
     d="m 732.66026,581.86991 c 1.10472,0 2.20945,0 3.34766,0 -0.77344,25.71685 -1.43554,45.72679 -16.7383,66.9532 -1.10473,-2.20946 -2.20946,-4.41891 -3.34766,-6.69532 2.18274,-5.59879 4.42431,-11.17472 6.69532,-16.7383 1.34839,-6.94466 2.53108,-13.92329 3.55689,-20.92287 2.78881,-18.89943 2.78881,-18.89943 6.48609,-22.59671 z"
     fill="#7ea242"
     id="path59"
     style="stroke-width:3.34766" />
  <path
     d="m 397.89429,478.09246 c 2.28844,5.8061 2.28844,5.8061 3.34766,13.39064 -4.06689,7.16609 -4.06689,7.16609 -9.83375,14.22756 -1.89444,2.3648 -3.78888,4.72961 -5.74072,7.16608 -2.23319,2.66688 -2.23319,2.66688 -4.51149,5.38764 -2.20946,-2.20946 -4.41891,-4.41891 -6.69532,-6.69532 1.98829,-4.33992 4.01913,-8.66036 6.06763,-12.97218 1.12631,-2.40796 2.25261,-4.81592 3.41305,-7.29685 3.90996,-6.51225 3.90996,-6.51225 13.95294,-13.20757 z"
     fill="#b9d369"
     id="path60"
     style="stroke-width:3.34766" />
  <path
     d="m 438.0662,648.82311 c 10.6311,4.75664 18.39199,10.59228 26.99051,18.41213 7.60528,6.89 14.64458,12.69225 23.22439,18.41212 0,2.20946 0,4.41892 0,6.69532 -2.20946,0 -4.41891,0 -6.69532,0 0,-2.20945 0,-4.41891 0,-6.69532 -2.34755,-0.82854 -4.69509,-1.65709 -7.11378,-2.51074 -14.75638,-6.41582 -26.93202,-12.01829 -34.31351,-26.78128 -0.69046,-2.48563 -1.38091,-4.97127 -2.09229,-7.53223 z"
     fill="#6ba13d"
     id="path61"
     style="stroke-width:3.34766" />
  <path
     d="m 320.89811,504.87374 c 9.40189,4.70094 9.65019,10.40478 13.39064,20.08596 1.86423,2.96896 3.72846,5.93791 5.64918,8.99684 1.44995,2.55468 2.89991,5.10936 4.3938,7.74146 -1.10473,2.20945 -2.20945,4.41891 -3.34766,6.69532 -3.31418,-2.20946 -6.62836,-4.41891 -10.04298,-6.69532 0,2.20945 0,4.41891 0,6.69532 -2.20945,0 -4.41891,0 -6.69532,0 -1.10472,-14.36146 -2.20945,-28.72292 -3.34766,-43.51958 z"
     fill="#90b325"
     id="path62"
     style="stroke-width:3.34766" />
  <path
     d="m 314.20279,695.69034 c 2.20946,0 4.41892,0 6.69532,0 0.27619,2.07137 0.55237,4.14273 0.83692,6.27687 1.8014,7.72796 1.8014,7.72796 9.20606,10.46143 6.69532,3.34766 6.69532,3.34766 9.20607,10.46144 0.41427,3.10705 0.41427,3.10705 0.83691,6.27686 -8.50005,-1.28954 -12.47844,-2.34664 -18.35982,-8.80068 -1.39817,-2.1361 -2.79634,-4.27219 -4.23688,-6.47302 -1.43269,-2.14472 -2.86539,-4.28945 -4.3415,-6.49916 -1.57941,-2.47917 -1.57941,-2.47917 -3.19073,-5.00842 1.10472,-2.20945 2.20945,-4.41891 3.34765,-6.69532 z"
     fill="#48753d"
     id="path63"
     style="stroke-width:3.34766" />
  <path
     d="m 538.49599,561.78396 c 3.31419,1.10472 6.62837,2.20945 10.04298,3.34766 5.43405,12.5841 7.49859,23.16869 6.69532,36.82425 -2.20945,0 -4.41891,0 -6.69532,0 -2.34126,-4.79305 -4.63358,-9.61002 -6.90455,-14.43678 -1.28165,-2.67983 -2.56331,-5.35966 -3.8838,-8.12069 -2.60229,-7.57146 -2.60229,-7.57146 0.74537,-17.61444 z"
     fill="#93ac45"
     id="path64"
     style="stroke-width:3.34766" />
  <path
     d="m 304.15982,441.26821 c 1.10472,0 2.20945,0 3.34766,0 2.33613,8.15143 4.63161,16.3107 6.90454,24.47976 0.66672,2.31086 1.33344,4.62173 2.02037,7.00262 4.84495,17.59483 4.84495,17.59483 1.11806,28.77549 -0.85012,-2.37775 -1.70024,-4.75551 -2.57612,-7.20531 -1.1522,-3.07684 -2.3044,-6.15368 -3.49151,-9.32376 -1.1263,-3.06821 -2.25261,-6.13642 -3.41304,-9.2976 -3.35456,-8.76819 -3.35456,-8.76819 -13.95294,-10.99759 3.31418,-7.73309 6.62836,-15.46618 10.04298,-23.43361 z"
     fill="#a5c52a"
     id="path65"
     style="stroke-width:3.34766" />
  <path
     d="m 505.0194,253.79927 c 14.73353,1.68384 22.46932,6.98901 33.47659,16.7383 -1.10472,2.20946 -2.20945,4.41891 -3.34766,6.69532 -4.41891,-1.10473 -8.83782,-2.20945 -13.39063,-3.34766 1.10472,-2.20945 2.20945,-4.41891 3.34766,-6.69532 -2.20946,0 -4.41892,0 -6.69532,0 -1.10473,2.20946 -2.20946,4.41891 -3.34766,6.69532 -2.20946,-1.10472 -4.41891,-2.20945 -6.69532,-3.34766 -2.09229,-8.57837 -2.09229,-8.57837 -3.34766,-16.7383 z"
     fill="#dded33"
     id="path66"
     style="stroke-width:3.34766" />
  <path
     d="m 394.54663,233.71332 c 3.31418,0 6.62836,0 10.04298,0 -1.595,14.35499 -5.55386,20.97802 -16.7383,30.12893 -2.20946,0 -4.41891,0 -6.69532,0 1.75559,-12.64027 4.44082,-20.8349 13.39064,-30.12893 z"
     fill="#f1f98b"
     id="path67"
     style="stroke-width:3.34766" />
  <path
     d="m 444.76152,280.58055 c 3.31418,2.20946 6.62837,4.41891 10.04298,6.69532 -3.83202,3.00348 -3.83202,3.00348 -7.74146,6.06763 -10.21635,8.01473 -10.21635,8.01473 -19.03982,17.36599 0,4.41891 0,8.83782 0,13.39064 -2.20945,0 -4.41891,0 -6.69532,0 -2.49766,-7.46685 -2.49766,-7.46685 -3.34766,-16.7383 5.53149,-7.493 5.53149,-7.493 13.18141,-14.43678 2.51585,-2.3346 5.03169,-4.66921 7.62378,-7.07455 1.97211,-1.73908 3.94422,-3.47817 5.97609,-5.26995 z"
     fill="#d8e842"
     id="path68"
     style="stroke-width:3.34766" />
  <path
     d="m 494.97642,387.70565 c 1.10473,7.7331 2.20945,15.46619 3.34766,23.43362 -8.83782,0 -17.67565,0 -26.78128,0 0,-3.31418 0,-6.62837 0,-10.04298 15.45074,-13.39064 15.45074,-13.39064 23.43362,-13.39064 z"
     fill="#c0d73a"
     id="path69"
     style="stroke-width:3.34766" />
  <path
     d="m 484.93344,173.45543 c 0,2.20946 0,4.41891 0,6.69532 2.20945,1.10473 4.41891,2.20946 6.69532,3.34766 -4.87505,2.24694 -9.75869,4.47522 -14.64601,6.69533 -4.078,1.86423 -4.078,1.86423 -8.23838,3.76612 -7.24455,2.9292 -7.24455,2.9292 -13.93987,2.9292 0,-3.31418 0,-6.62837 0,-10.04298 17.21654,-13.39065 17.21654,-13.39065 30.12894,-13.39065 z"
     fill="#f2fa54"
     id="path70"
     style="stroke-width:3.34766" />
  <path
     d="m 575.32025,447.96353 c 14.13622,8.48173 22.70752,15.28609 30.12894,30.12893 -13.39064,0 -13.39064,0 -20.71365,-3.76611 -8.03711,-8.31426 -8.41079,-15.06217 -9.41529,-26.36282 z"
     fill="#c8d962"
     id="path71"
     style="stroke-width:3.34766" />
  <path
     d="m 491.62876,166.76011 c 1.10473,3.31419 2.20945,6.62837 3.34766,10.04298 -4.2463,-0.41427 -4.2463,-0.41427 -8.57838,-0.83691 -14.9769,1.08923 -22.38392,6.1909 -34.9412,14.22756 0.41846,-6.06764 0.41846,-6.06764 3.34766,-13.39065 12.54565,-7.98359 21.97231,-11.35344 36.82426,-10.04298 z"
     fill="#d9e33f"
     id="path72"
     style="stroke-width:3.34766" />
  <path
     d="m 267.33556,591.91289 c 1.10473,0 2.20945,0 3.34766,0 1.10473,5.52364 2.20945,11.04728 3.34766,16.7383 2.20945,0 4.41891,0 6.69532,0 0.41846,11.29835 0.41846,11.29835 0,23.43362 -2.20946,2.20946 -4.41891,4.41891 -6.69532,6.69532 -7.63477,-11.45215 -7.4293,-15.67332 -7.11378,-29.08279 0.0604,-3.32713 0.12083,-6.65426 0.18308,-10.08221 0.0777,-2.54174 0.15535,-5.08348 0.23538,-7.70224 z"
     fill="#74a03a"
     id="path73"
     style="stroke-width:3.34766" />
  <path
     d="m 424.67556,434.57289 c 3.31419,0 6.62837,0 10.04298,0 -2.0325,18.29257 -2.0325,18.29257 -7.95069,26.36282 -5.43995,3.76611 -5.43995,3.76611 -15.48293,3.76611 0.96664,-1.86422 1.93328,-3.72845 2.92921,-5.64917 3.90446,-8.02584 7.22755,-16.16407 10.46143,-24.47976 z"
     fill="#bed15d"
     id="path74"
     style="stroke-width:3.34766" />
  <path
     d="m 692.48834,434.57289 c 1.10473,0 2.20946,0 3.34766,0 0,16.57091 0,33.14183 0,50.21489 -3.31418,1.10473 -6.62837,2.20946 -10.04298,3.34766 0.47079,-7.67281 0.96298,-15.3443 1.4646,-23.01516 0.27187,-4.27219 0.54373,-8.54438 0.82384,-12.94603 1.05922,-10.90604 1.05922,-10.90604 4.40688,-17.60136 z"
     fill="#a7c425"
     id="path75"
     style="stroke-width:3.34766" />
  <path
     d="m 317.55045,327.44779 c 2.20946,0 4.41892,0 6.69532,0 0,2.20945 0,4.41891 0,6.69532 3.31419,1.10473 6.62837,2.20945 10.04298,3.34766 -3.31418,6.62836 -6.62836,13.25673 -10.04298,20.08596 -2.20945,-1.10473 -4.41891,-2.20946 -6.69532,-3.34766 -4.26948,-18.24232 -4.26948,-18.24232 0,-26.78128 z"
     fill="#def14e"
     id="path76"
     style="stroke-width:3.34766" />
  <path
     d="m 505.0194,163.41245 c 17.59037,1.25646 28.8583,7.64831 43.51957,16.7383 -3.31418,2.20946 -6.62836,4.41891 -10.04298,6.69533 -5.38554,-3.10706 -5.38554,-3.10706 -10.87989,-6.27687 -8.5292,-4.87877 -17.08175,-9.55504 -25.94436,-13.8091 1.10473,-1.10472 2.20945,-2.20945 3.34766,-3.34766 z"
     fill="#dbea38"
     id="path77"
     style="stroke-width:3.34766" />
  <path
     d="m 638.92578,571.82694 c 1.10473,2.20945 2.20946,4.41891 3.34766,6.69531 -2.20945,0 -4.41891,0 -6.69532,0 1.10473,3.31419 2.20946,6.62837 3.34766,10.04298 -7.73309,4.41891 -15.46618,8.83783 -23.43361,13.39064 1.10472,-4.41891 2.20945,-8.83782 3.34766,-13.39064 2.20945,0 4.41891,0 6.69532,0 -1.10473,-3.31418 -2.20946,-6.62836 -3.34766,-10.04298 5.52363,-2.20945 11.04727,-4.41891 16.73829,-6.69531 z"
     fill="#7ea630"
     id="path78"
     style="stroke-width:3.34766" />
  <path
     d="m 662.3594,531.65502 c 2.20946,2.20945 4.41891,4.41891 6.69532,6.69532 -1.25537,7.11378 -1.25537,7.11378 -3.34766,13.39064 -3.31418,0 -6.62836,0 -10.04298,0 0,3.31418 0,6.62836 0,10.04298 -6.62836,3.31418 -6.62836,3.31418 -13.39064,6.69532 4.85559,-13.7575 11.754,-24.88178 20.08596,-36.82426 z"
     fill="#85ac25"
     id="path79"
     style="stroke-width:3.34766" />
  <path
     d="m 487.65341,256.10079 c 2.41659,0.34523 4.83319,0.69046 7.32301,1.04614 0,5.52364 0,11.04728 0,16.7383 -3.31419,-2.20945 -6.62837,-4.41891 -10.04298,-6.69532 -2.62373,1.72614 -5.24746,3.45228 -7.95069,5.23072 -2.89991,1.58805 -5.79982,3.17609 -8.78761,4.81226 -2.20946,-1.10473 -4.41891,-2.20945 -6.69532,-3.34766 14.42069,-16.48079 14.42069,-16.48079 26.15359,-17.78444 z"
     fill="#d7e734"
     id="path80"
     style="stroke-width:3.34766" />
  <path
     d="m 702.53132,682.29971 c -6.62837,9.94254 -6.62837,9.94254 -13.39064,20.08595 -3.31418,-1.10472 -6.62837,-2.20945 -10.04298,-3.34766 1.10473,-5.52364 2.20946,-11.04727 3.34766,-16.73829 10.04298,-3.34766 10.04298,-3.34766 20.08596,0 z"
     fill="#5c8544"
     id="path81"
     style="stroke-width:3.34766" />
  <path
     d="m 377.80833,595.26055 c 12.77261,8.2404 12.77261,8.2404 15.90138,17.36599 0.27618,2.00232 0.55237,4.00464 0.83692,6.06763 -4.41891,3.31418 -8.83782,6.62837 -13.39064,10.04298 -2.09086,-11.49971 -3.34766,-21.72848 -3.34766,-33.4766 z"
     fill="#719e2a"
     id="path82"
     style="stroke-width:3.34766" />
  <path
     d="m 578.66791,330.79545 c 17.12741,7.95201 28.5369,16.02952 36.82426,33.47659 -1.10473,3.31419 -2.20946,6.62837 -3.34766,10.04298 -4.32914,-5.36611 -8.652,-10.73728 -12.97218,-16.11061 -2.40797,-2.99053 -4.81593,-5.98107 -7.29686,-9.06222 -6.51224,-8.30376 -6.51224,-8.30376 -13.20756,-18.34674 z"
     fill="#e8fa5e"
     id="path83"
     style="stroke-width:3.34766" />
  <path
     d="m 441.41386,293.97119 c 2.20946,1.10473 4.41891,2.20946 6.69532,3.34766 -4.24957,13.10284 -8.40824,19.38539 -20.08596,26.78128 -1.10472,-4.41891 -2.20945,-8.83782 -3.34766,-13.39064 3.31419,-1.10473 6.62837,-2.20946 10.04298,-3.34766 4.04672,-6.69587 4.04672,-6.69587 6.69532,-13.39064 z"
     fill="#e7f555"
     id="path84"
     style="stroke-width:3.34766" />
  <path
     d="m 545.19131,655.51843 c 2.20946,1.10473 4.41891,2.20945 6.69532,3.34766 -11.11119,14.70599 -19.41267,22.84036 -36.82425,30.12893 4.62607,-10.74745 9.78929,-16.90355 18.83058,-24.27053 2.11452,-1.7434 4.22904,-3.4868 6.40763,-5.28302 2.42091,-1.94191 2.42091,-1.94191 4.89072,-3.92304 z"
     fill="#5f9f39"
     id="path85"
     style="stroke-width:3.34766" />
  <path
     d="m 742.70323,568.47928 c 1.10473,0 2.20946,0 3.34766,0 -1.72087,16.63507 -4.1305,31.10064 -10.04297,46.86723 -1.10473,0 -2.20946,0 -3.34766,0 1.10472,-13.25673 2.20945,-26.51346 3.34766,-40.17192 2.20945,0 4.41891,0 6.69531,0 0,-2.20945 0,-4.41891 0,-6.69531 z"
     fill="#8da845"
     id="path86"
     style="stroke-width:3.34766" />
  <path
     d="m 494.97642,501.52608 c 0,9.94255 0,19.8851 0,30.12894 -3.31419,-1.10473 -6.62837,-2.20946 -10.04298,-3.34766 0,-4.41891 0,-8.83782 0,-13.39064 -2.20946,-1.10473 -4.41891,-2.20945 -6.69532,-3.34766 9.20606,-10.04298 9.20606,-10.04298 16.7383,-10.04298 z"
     fill="#a9c140"
     id="path87"
     style="stroke-width:3.34766" />
  <path
     d="m 407.93727,220.32268 c 8.99683,1.04614 8.99683,1.04614 16.73829,3.34766 -5.52363,6.62836 -11.04727,13.25673 -16.73829,20.08596 -1.10473,-3.31419 -2.20946,-6.62837 -3.34766,-10.04298 -2.20946,-1.10473 -4.41892,-2.20946 -6.69532,-3.34766 3.97534,-5.23072 3.97534,-5.23072 10.04298,-10.04298 z"
     fill="#eefb64"
     id="path88"
     style="stroke-width:3.34766" />
  <path
     d="m 729.3126,548.39332 c 3.31418,0 6.62836,0 10.04298,0 -1.10473,11.04727 -2.20946,22.09455 -3.34766,33.47659 -3.31419,1.10473 -6.62837,2.20946 -10.04298,3.34766 1.10472,-12.152 2.20945,-24.30401 3.34766,-36.82425 z"
     fill="#81a722"
     id="path89"
     style="stroke-width:3.34766" />
  <path
     d="m 478.23812,514.91672 c 2.20945,0 4.41891,0 6.69532,0 -1.10473,7.73309 -2.20946,15.46619 -3.34766,23.43362 -1.10473,-2.20946 -2.20946,-4.41891 -3.34766,-6.69532 -2.20946,0 -4.41891,0 -6.69532,0 -1.10473,3.31418 -2.20946,6.62837 -3.34766,10.04298 -1.10473,-2.20946 -2.20946,-4.41891 -3.34766,-6.69532 4.26478,-6.82365 8.73946,-13.5196 13.39064,-20.08596 z"
     fill="#b5c757"
     id="path90"
     style="stroke-width:3.34766" />
  <path
     d="m 719.26962,414.48693 c 3.31418,1.65709 3.31418,1.65709 6.69532,3.34766 0,2.20945 0,4.41891 0,6.69532 3.31418,1.10473 6.62836,2.20945 10.04298,3.34766 3.97534,11.92604 3.97534,11.92604 6.69531,23.43362 -2.20945,0 -4.41891,0 -6.69531,0 0,-2.20946 0,-4.41891 0,-6.69532 -2.20946,0 -4.41892,0 -6.69532,0 -3.31419,-9.94255 -6.62837,-19.8851 -10.04298,-30.12894 z"
     fill="#bbde40"
     id="path91"
     style="stroke-width:3.34766" />
  <path
     d="m 411.28492,320.75247 c 0,10.04298 0,10.04298 -6.69531,20.08596 -3.31419,0 -6.62837,0 -10.04298,0 -2.20946,4.41891 -4.41891,8.83782 -6.69532,13.39064 -2.20946,-1.10473 -4.41891,-2.20946 -6.69532,-3.34766 3.75288,-4.40512 7.52209,-8.79633 11.29835,-13.18141 2.09726,-2.4468 4.19451,-4.8936 6.35532,-7.41455 5.77995,-6.18532 5.77995,-6.18532 12.47526,-9.53298 z"
     fill="#d5eb46"
     id="path92"
     style="stroke-width:3.34766" />
  <path
     d="m 565.27727,648.82311 c 2.20946,1.10473 4.41891,2.20945 6.69532,3.34766 -4.21612,4.01583 -8.47946,7.98214 -12.76295,11.92604 -3.55369,3.32065 -3.55369,3.32065 -7.17916,6.70839 -2.25693,1.58373 -4.51385,3.16746 -6.83917,4.79919 -3.31418,-1.10473 -6.62836,-2.20946 -10.04298,-3.34766 9.8957,-8.35637 19.34569,-16.24479 30.12894,-23.43362 z"
     fill="#608c33"
     id="path93"
     style="stroke-width:3.34766" />
  <path
     d="m 709.22664,642.12779 c 4.39291,13.17875 0.81335,20.50402 -3.34766,33.4766 -3.31418,-1.10473 -6.62837,-2.20946 -10.04298,-3.34766 4.01383,-10.32129 8.29217,-20.29618 13.39064,-30.12894 z"
     fill="#648e40"
     id="path94"
     style="stroke-width:3.34766" />
  <path
     d="m 307.50748,444.61587 c 9.27659,7.85333 11.78574,13.88529 14.01832,25.73513 0.53079,2.70572 1.06157,5.41144 1.60845,8.19915 0.3668,2.05842 0.7336,4.11684 1.11152,6.23763 -3.31418,1.65709 -3.31418,1.65709 -6.69532,3.34766 -1.6992,-4.73348 -3.3669,-9.47828 -5.02149,-14.22755 -1.39817,-3.96149 -1.39817,-3.96149 -2.82458,-8.003 -2.1969,-7.89838 -2.1969,-7.89838 -2.1969,-21.28902 z"
     fill="#bee339"
     id="path95"
     style="stroke-width:3.34766" />
  <path
     d="m 571.97259,210.2797 c 12.04842,1.85964 16.73528,5.85463 24.27053,15.2737 2.6151,3.21708 2.6151,3.21708 5.28303,6.49916 1.2946,1.65278 2.5892,3.30555 3.92304,5.00842 -2.06274,-1.04432 -4.12547,-2.08863 -6.25071,-3.16459 -4.67594,-2.31227 -9.4302,-4.47379 -14.25371,-6.45994 -7.68394,-4.61036 -9.69413,-8.96163 -12.97218,-17.15675 z"
     fill="#e2ee63"
     id="path96"
     style="stroke-width:3.34766" />
  <path
     d="m 401.24195,792.77247 c 9.20378,2.30095 15.17892,4.5381 20.83133,12.35758 3.28268,5.82411 6.30774,11.79164 9.2976,17.77136 -5.52364,-1.10473 -11.04727,-2.20945 -16.7383,-3.34766 0,-5.52364 0,-11.04727 0,-16.7383 -3.31418,0 -6.62836,0 -10.04297,0 -1.10473,-3.31418 -2.20946,-6.62836 -3.34766,-10.04298 z"
     fill="#2b5f3d"
     id="path97"
     style="stroke-width:3.34766" />
  <path
     d="m 672.40238,705.73332 c 2.20946,1.10473 4.41891,2.20946 6.69532,3.34766 -2.20945,5.52364 -4.41891,11.04728 -6.69532,16.7383 -3.31418,0 -6.62836,0 -10.04298,0 -1.10473,-2.20945 -2.20945,-4.41891 -3.34766,-6.69532 4.41891,-4.41891 8.83782,-8.83782 13.39064,-13.39064 z"
     fill="#48753b"
     id="path98"
     style="stroke-width:3.34766" />
  <path
     d="m 414.63258,632.08481 c 10.94532,1.88712 16.155,5.02023 23.43362,13.39064 -1.10473,3.31418 -2.20945,6.62836 -3.34766,10.04298 -2.20945,-1.10473 -4.41891,-2.20946 -6.69532,-3.34766 0,-2.20946 0,-4.41891 0,-6.69532 -4.41891,-2.20946 -8.83782,-4.41891 -13.39064,-6.69532 0,-2.20946 0,-4.41891 0,-6.69532 z"
     fill="#7ca349"
     id="path99"
     style="stroke-width:3.34766" />
  <path
     d="m 448.10918,578.52225 c 3.31418,2.20946 6.62837,4.41892 10.04298,6.69532 -3.31418,6.62837 -6.62837,13.25674 -10.04298,20.08596 -2.20945,0 -4.41891,0 -6.69532,0 2.9292,-23.01516 2.9292,-23.01516 6.69532,-26.78128 z"
     fill="#a4c040"
     id="path100"
     style="stroke-width:3.34766" />
  <path
     d="m 642.27344,548.39332 c 2.20946,2.20945 4.41892,4.41891 6.69532,6.69532 -4.18457,9.83375 -4.18457,9.83375 -10.04298,20.08595 -7.323,2.92921 -7.323,2.92921 -13.39063,3.34766 5.016,-10.41785 10.71029,-20.26492 16.73829,-30.12893 z"
     fill="#9abf3b"
     id="path101"
     style="stroke-width:3.34766" />
  <path
     d="m 598.75387,491.4831 c 4.41891,0 8.83782,0 13.39064,0 7.8989,7.89891 8.3404,12.65066 10.04298,23.43362 -3.31419,0 -6.62837,0 -10.04298,0 -6.62837,-11.59964 -6.62837,-11.59964 -13.39064,-23.43362 z"
     fill="#b8d53f"
     id="path102"
     style="stroke-width:3.34766" />
  <path
     d="m 307.50748,360.92438 c 1.10472,0 2.20945,0 3.34766,0 -2.51075,25.94436 -2.51075,25.94436 -10.04298,33.47659 -2.20946,-1.10473 -4.41891,-2.20945 -6.69532,-3.34766 1.10472,-4.41891 2.20945,-8.83781 3.34766,-13.39063 2.20945,0 4.41891,0 6.69532,0 1.10472,-5.52364 2.20945,-11.04727 3.34766,-16.7383 z"
     fill="#c9e319"
     id="path103"
     style="stroke-width:3.34766" />
  <path
     d="m 471.5428,849.68269 c 3.31418,1.10473 6.62837,2.20945 10.04298,3.34766 0,2.20945 0,4.41891 0,6.69532 2.20945,0 4.41891,0 6.69532,0 -2.20946,4.41893 -4.41891,8.83783 -6.69532,13.39063 -4.41891,-4.4189 -8.83782,-8.8378 -13.39064,-13.39063 1.10473,-3.31418 2.20946,-6.62837 3.34766,-10.04298 z"
     fill="#2d5b36"
     id="path104"
     style="stroke-width:3.34766" />
  <path
     d="m 458.15216,407.79161 c 3.31418,1.10473 6.62837,2.20946 10.04298,3.34766 -1.10473,4.41891 -2.20946,8.83782 -3.34766,13.39064 -4.41891,1.10473 -8.83782,2.20945 -13.39064,3.34766 -1.10473,-3.31418 -2.20945,-6.62837 -3.34766,-10.04298 3.31418,-1.10473 6.62837,-2.20946 10.04298,-3.34766 0,-2.20946 0,-4.41891 0,-6.69532 z"
     fill="#c4dd47"
     id="path105"
     style="stroke-width:3.34766" />
  <path
     d="m 545.19131,283.92821 c 15.90139,2.51075 15.90139,2.51075 23.43362,10.04298 0,3.31418 0,6.62837 0,10.04298 -4.41891,-1.10473 -8.83782,-2.20946 -13.39064,-3.34766 -0.41427,-2.14041 -0.82854,-4.28082 -1.25537,-6.48609 -1.03568,-3.41775 -1.03568,-3.41775 -2.09229,-6.90455 -2.20945,-1.10473 -4.41891,-2.20945 -6.69532,-3.34766 z"
     fill="#d8eb46"
     id="path106"
     style="stroke-width:3.34766" />
  <path
     d="m 471.5428,270.53757 c 4.41891,2.20946 8.83782,4.41891 13.39064,6.69532 -5.52364,4.41891 -11.04728,8.83782 -16.7383,13.39064 -2.20946,-1.10473 -4.41891,-2.20945 -6.69532,-3.34766 0,-3.31418 0,-6.62836 0,-10.04298 3.31418,-2.20945 6.62837,-4.41891 10.04298,-6.69532 z"
     fill="#e9fa3c"
     id="path107"
     style="stroke-width:3.34766" />
  <path
     d="m 494.97642,257.14693 c 6.62836,1.6571 6.62836,1.6571 13.39064,3.34766 0,3.31419 0,6.62837 0,10.04298 2.20945,1.10473 4.41891,2.20946 6.69532,3.34766 -3.31419,1.10473 -6.62837,2.20946 -10.04298,3.34766 0,-2.20945 0,-4.41891 0,-6.69532 -4.41891,-1.10472 -8.83782,-2.20945 -13.39064,-3.34766 1.10473,-3.31418 2.20945,-6.62836 3.34766,-10.04298 z"
     fill="#e7f41a"
     id="path108"
     style="stroke-width:3.34766" />
  <path
     d="m 568.62493,210.2797 c 21.99891,16.7383 21.99891,16.7383 26.78128,33.4766 -3.77934,-3.1225 -7.54231,-6.26482 -11.29835,-9.4153 -2.09726,-1.74771 -4.19452,-3.49543 -6.35533,-5.2961 -5.77994,-5.37456 -5.77994,-5.37456 -12.47526,-15.41754 1.10473,-1.10473 2.20946,-2.20946 3.34766,-3.34766 z"
     fill="#f7fd78"
     id="path109"
     style="stroke-width:3.34766" />
  <path
     d="m 625.53515,762.64354 c 4.41891,1.10473 8.83782,2.20945 13.39063,3.34766 -11.59964,9.94255 -11.59964,9.94255 -23.43361,20.08596 0,-11.77427 2.75999,-14.63335 10.04298,-23.43362 z"
     fill="#215640"
     id="path110"
     style="stroke-width:3.34766" />
  <path
     d="m 340.98407,528.30736 c 8.03683,9.64419 14.97378,18.62654 20.08596,30.12894 -7.95069,-2.30152 -7.95069,-2.30152 -16.7383,-6.69532 -4.60303,-8.36915 -4.60303,-8.36915 -6.69532,-16.7383 1.10473,-2.20946 2.20946,-4.41891 3.34766,-6.69532 z"
     fill="#a4cf3d"
     id="path111"
     style="stroke-width:3.34766" />
  <path
     d="m 682.44536,357.57673 c 13.39064,6.69531 13.39064,6.69531 17.57521,17.15675 0.82855,3.17609 1.6571,6.35219 2.51075,9.62452 -3.31418,1.10472 -6.62837,2.20945 -10.04298,3.34765 -3.31418,-9.94254 -6.62837,-19.88509 -10.04298,-30.12892 z"
     fill="#c9e31f"
     id="path112"
     style="stroke-width:3.34766" />
  <path
     d="m 414.63258,310.70949 c 1.44996,3.21061 1.44996,3.21061 2.92921,6.48609 3.1911,7.4136 3.1911,7.4136 10.46143,10.25221 -6.62836,3.31418 -6.62836,3.31418 -13.39064,6.69532 -2.20945,-5.52364 -4.41891,-11.04728 -6.69531,-16.7383 2.20945,-2.20946 4.41891,-4.41891 6.69531,-6.69532 z"
     fill="#e4f24d"
     id="path113"
     style="stroke-width:3.34766" />
  <path
     d="m 505.0194,160.06479 c 1.10472,4.41891 2.20945,8.83783 3.34766,13.39064 -3.31419,1.65709 -3.31419,1.65709 -6.69532,3.34766 -8.57903,-3.48523 -13.47803,-6.7827 -20.08596,-13.39064 8.33784,-2.30009 14.65894,-3.34766 23.43362,-3.34766 z"
     fill="#ecf746"
     id="path114"
     style="stroke-width:3.34766" />
  <path
     d="m 357.72237,387.70565 c 2.20946,1.10473 4.41891,2.20946 6.69532,3.34766 -1.10473,5.52364 -2.20946,11.04728 -3.34766,16.7383 -3.31418,1.10473 -6.62837,2.20946 -10.04298,3.34766 2.9292,-15.90138 2.9292,-15.90138 6.69532,-23.43362 z"
     fill="#d9e868"
     id="path115"
     style="stroke-width:3.34766" />
  <path
     d="m 484.93344,866.421 c 8.83782,2.2094 17.67564,4.4189 26.78128,6.6953 -2.20946,2.2095 -4.41891,4.4189 -6.69532,6.6953 -8.78761,-1.2553 -8.78761,-1.2553 -16.7383,-3.3476 -1.10473,-3.3142 -2.20946,-6.6284 -3.34766,-10.043 z"
     fill="#346b48"
     id="path116"
     style="stroke-width:3.34766" />
  <path
     d="m 675.75004,685.64736 c 2.20946,0 4.41891,0 6.69532,0 1.10473,7.7331 2.20946,15.46619 3.34766,23.43362 -3.31418,0 -6.62837,0 -10.04298,0 -3.49663,-10.48988 -3.1275,-13.3561 0,-23.43362 z"
     fill="#4b8838"
     id="path117"
     style="stroke-width:3.34766" />
  <path
     d="m 461.49982,668.90907 c 23.01516,12.13526 23.01516,12.13526 26.78128,23.43361 -2.20946,0 -4.41891,0 -6.69532,0 0,-2.20945 0,-4.41891 0,-6.69532 -2.69277,-0.89759 -5.38555,-1.79518 -8.15992,-2.71997 -2.83087,-1.31186 -5.66173,-2.62373 -8.57838,-3.97534 -1.10473,-3.31419 -2.20946,-6.62837 -3.34766,-10.04298 z"
     fill="#659a48"
     id="path118"
     style="stroke-width:3.34766" />
  <path
     d="m 287.42152,384.358 c 1.10472,0 2.20945,0 3.34766,0 1.04614,7.323 1.04614,7.323 0,16.73829 -8.36915,9.41529 -8.36915,9.41529 -16.7383,16.7383 3.71392,-11.67231 7.57701,-22.67987 13.39064,-33.47659 z"
     fill="#c2da38"
     id="path119"
     style="stroke-width:3.34766" />
</svg>
