<?xml version="1.0" encoding="UTF-8"?>
<svg version="1.1" xmlns="http://www.w3.org/2000/svg" width="313" height="185">
<path d="M0 0 C0.66 0 1.32 0 2 0 C1.731875 0.66 1.46375 1.32 1.1875 2 C0.795625 2.99 0.40375 3.98 0 5 C-0.25265625 5.59296875 -0.5053125 6.1859375 -0.765625 6.796875 C-4.71891824 16.48631922 -4.7134048 25.16148655 -0.84375 34.9140625 C5.08469371 47.66021648 14.11217981 56.5071318 25 65 C37.90586958 57.44767632 50.3660428 45.2662172 54.55859375 30.5 C56.25496774 20.89221809 55.31689242 13.10287647 51.09375 4.328125 C50 2 50 2 50 0 C54.05713093 1.35237698 55.2791938 4.02932534 57.4375 7.5 C57.83783447 8.13566895 58.23816895 8.77133789 58.65063477 9.42626953 C61.55507191 14.11306947 64.1536085 18.78725935 66 24 C66.22300781 24.62777344 66.44601563 25.25554687 66.67578125 25.90234375 C70.21909667 37.68929097 67.82837119 49.49639247 62.33984375 60.25390625 C55.72146319 71.54728253 47.27357116 81.85132306 37 90 C35.65615234 91.08667969 35.65615234 91.08667969 34.28515625 92.1953125 C31.86628813 94.14262007 29.43792266 96.07663888 27 98 C9.19927398 89.73822806 -7.35668552 70.45690746 -14.375 52.375 C-18.35116942 39.3772697 -16.51622688 26.75420282 -10.3515625 14.8046875 C-7.35453378 9.47809061 -4.27184322 4.39389588 0 0 Z " fill="#02744A" transform="translate(130,51)"/>
<path d="M0 0 C3.3125 -0.25 3.3125 -0.25 7 0 C9.69427391 2.50846191 10.76237062 5.57271863 12 9 C14.6855594 6.3144406 15.06049974 3.62378672 16 0 C22.75 -0.125 22.75 -0.125 25 1 C25.99 0.67 26.98 0.34 28 0 C29.9375 -0.1328125 29.9375 -0.1328125 32 -0.125 C32.680625 -0.12757813 33.36125 -0.13015625 34.0625 -0.1328125 C36 0 36 0 39 1 C38.67 2.98 38.34 4.96 38 7 C35.03 6.67 32.06 6.34 29 6 C29 6.66 29 7.32 29 8 C29.763125 7.814375 30.52625 7.62875 31.3125 7.4375 C34 7 34 7 37 8 C37 9.65 37 11.3 37 13 C37.66 13.33 38.32 13.66 39 14 C39.09087891 12.60974609 39.09087891 12.60974609 39.18359375 11.19140625 C39.26738281 9.99386719 39.35117188 8.79632813 39.4375 7.5625 C39.51871094 6.36753906 39.59992188 5.17257813 39.68359375 3.94140625 C40 1 40 1 41 0 C45.91725822 -0.42902253 50.48741199 -0.648252 55.0625 1.3125 C57 3 57 3 59 6 C58.70011383 8.81892999 58.20894408 11.37316777 57.3125 14.0625 C56.8716356 16.79585931 57.84076717 18.54515402 59 21 C55.8125 21.3125 55.8125 21.3125 52 21 C49.0625 18.5 49.0625 18.5 47 16 C47 17.65 47 19.3 47 21 C43.66666667 21 40.33333333 21 37 21 C36.16726562 21.05800781 35.33453125 21.11601562 34.4765625 21.17578125 C26.85295253 21.5412968 26.85295253 21.5412968 22.75 18.9375 C21 16 21 16 21.1875 12.1875 C21.455625 11.135625 21.72375 10.08375 22 9 C19.76425178 11.23574822 18.75631642 13.28966629 17.375 16.125 C16.92898437 17.03507812 16.48296875 17.94515625 16.0234375 18.8828125 C15.68570313 19.58148438 15.34796875 20.28015625 15 21 C13.02 21 11.04 21 9 21 C7.49699373 17.68885587 5.99810044 14.37586628 4.5 11.0625 C4.07074219 10.11697266 3.64148438 9.17144531 3.19921875 8.19726562 C2.79316406 7.29814453 2.38710937 6.39902344 1.96875 5.47265625 C1.59169922 4.64000244 1.21464844 3.80734863 0.82617188 2.94946289 C0 1 0 1 0 0 Z M47 6 C47 7.32 47 8.64 47 10 C48.65 9.67 50.3 9.34 52 9 C51.67 8.01 51.34 7.02 51 6 C49.68 6 48.36 6 47 6 Z M28 14 C28 14.33 28 14.66 28 15 C30.64 15 33.28 15 36 15 C36 14.67 36 14.34 36 14 C33.36 14 30.72 14 28 14 Z " fill="#429758" transform="translate(112,153)"/>
<path d="M0 0 C6.70916124 3.62784702 12.60851019 8.77872277 17 15 C16.67 15.99 16.34 16.98 16 18 C15.41992188 17.39671875 14.83984375 16.7934375 14.2421875 16.171875 C8.14657696 9.91997907 8.14657696 9.91997907 1 5 C0.34 5 -0.32 5 -1 5 C-1 8.63 -1 12.26 -1 16 C0.65 16.66 2.3 17.32 4 18 C8.48874511 21.34305755 11.88116965 24.99251552 15.25 29.4375 C15.683125 29.98470703 16.11625 30.53191406 16.5625 31.09570312 C19.23485124 34.58048214 20.85075961 37.76696457 22 42 C18.19651872 40.73217291 17.63365921 39.30111615 15.4375 36 C11.14851461 29.90470721 5.797955 23.3989775 -1 20 C-1.70879904 30.19969217 -1.70879904 30.19969217 1.7890625 39.30078125 C3.32457177 40.36402907 4.89898235 41.37287429 6.50390625 42.328125 C11.62862552 45.76064432 16.19617117 51.82837104 17.71875 57.8359375 C17.8115625 58.55007812 17.904375 59.26421875 18 60 C17.01 60.33 16.02 60.66 15 61 C14.690625 60.05125 14.38125 59.1025 14.0625 58.125 C11.32673939 51.66226117 5.78297835 45.8553189 0 42 C-0.74119001 53.54877781 -0.74119001 53.54877781 3.75390625 63.92578125 C5.84485661 67.40632871 6.30706879 71.031394 7 75 C6.34 75 5.68 75 5 75 C4.47599609 73.71802734 4.47599609 73.71802734 3.94140625 72.41015625 C3.48636719 71.30542969 3.03132813 70.20070313 2.5625 69.0625 C2.11003906 67.96035156 1.65757812 66.85820313 1.19140625 65.72265625 C0.25575392 63.13431084 0.25575392 63.13431084 -1 62 C-1.33 67.94 -1.66 73.88 -2 80 C-2.66 80 -3.32 80 -4 80 C-4.66 74.39 -5.32 68.78 -6 63 C-8.475 68.94 -8.475 68.94 -11 75 C-11.66 75 -12.32 75 -13 75 C-12.59657725 68.81418444 -10.51160866 61.51160866 -6 57 C-5.92686433 54.46950598 -5.90752473 51.96695163 -5.9375 49.4375 C-5.94201172 48.72658203 -5.94652344 48.01566406 -5.95117188 47.28320312 C-5.96299136 45.52209987 -5.98092737 43.76103964 -6 42 C-6.78375 42.66 -7.5675 43.32 -8.375 44 C-11 46 -11 46 -13 46 C-13.24492187 46.55171875 -13.48984375 47.1034375 -13.7421875 47.671875 C-15.25738114 50.47639491 -17.11084126 52.78103123 -19.125 55.25 C-19.84945312 56.14203125 -20.57390625 57.0340625 -21.3203125 57.953125 C-22.15175781 58.96632813 -22.15175781 58.96632813 -23 60 C-24 57 -24 57 -23.03125 55.01953125 C-13.32830871 41.03442454 -13.32830871 41.03442454 -8.3359375 38.81640625 C-5.87946068 37.28253608 -5.87946068 37.28253608 -5.50708008 35.17285156 C-5.28189658 32.87531226 -5.20454288 30.62086387 -5.1875 28.3125 C-5.16236328 27.51521484 -5.13722656 26.71792969 -5.11132812 25.89648438 C-5.05249685 23.9315198 -5.02337596 21.96570609 -5 20 C-13.37550694 25.35502958 -19.69427229 31.82378715 -24.80859375 40.34765625 C-25.20175781 40.89292969 -25.59492188 41.43820313 -26 42 C-26.66 42 -27.32 42 -28 42 C-27.45814897 38.03337257 -26.3958173 35.77917503 -23.875 32.6875 C-22.92753906 31.52541016 -22.92753906 31.52541016 -21.9609375 30.33984375 C-21.31382812 29.56769531 -20.66671875 28.79554687 -20 28 C-19.41476563 27.27941406 -18.82953125 26.55882813 -18.2265625 25.81640625 C-15.3996546 22.43307078 -12.96781241 19.87555033 -9.125 17.6875 C-6.5436428 16.02434368 -6.07296121 15.30393309 -5.33984375 12.25 C-5.08920861 9.48242323 -4.96594776 6.77769012 -5 4 C-6.44037669 4.93307421 -7.87718985 5.87165077 -9.3125 6.8125 C-10.11300781 7.33457031 -10.91351563 7.85664062 -11.73828125 8.39453125 C-13.99977827 9.89981595 -13.99977827 9.89981595 -15.66796875 11.69921875 C-17 13 -17 13 -19 13 C-19.66 14.32 -20.32 15.64 -21 17 C-21.66 17 -22.32 17 -23 17 C-20.6582558 10.16495983 -15.43976949 5.29554616 -9.375 1.5 C-5.73453945 -0.11798247 -3.92431783 -0.39634631 0 0 Z " fill="#A5F69A" transform="translate(159,29)"/>
<path d="M0 0 C0.66 0 1.32 0 2 0 C1.731875 0.66 1.46375 1.32 1.1875 2 C0.795625 2.99 0.40375 3.98 0 5 C-0.25265625 5.59296875 -0.5053125 6.1859375 -0.765625 6.796875 C-4.23819928 15.30808648 -4.84523401 23.18233785 -2 32 C0.58547619 37.90965985 3.64229525 43.4973734 7 49 C6.01 49 5.02 49 4 49 C4 48.34 4 47.68 4 47 C3.29875 47.37125 2.5975 47.7425 1.875 48.125 C-1.79156248 49.24091032 -3.46416054 48.27892066 -7 47 C-9.14041656 47.38490194 -9.14041656 47.38490194 -11 48 C-9.23671698 58.02287192 -5.31249372 65.0883412 1 73 C0.67 73.66 0.34 74.32 0 75 C-10.83798513 63.12982581 -17.11028892 50.19948338 -16.37890625 33.890625 C-15.16211324 21.39654415 -8.73907644 8.98876434 0 0 Z " fill="#3DA962" transform="translate(130,51)"/>
<path d="M0 0 C4.05713093 1.35237698 5.2791938 4.02932534 7.4375 7.5 C7.83783447 8.13566895 8.23816895 8.77133789 8.65063477 9.42626953 C11.55507191 14.11306947 14.1536085 18.78725935 16 24 C16.22300781 24.62777344 16.44601563 25.25554687 16.67578125 25.90234375 C18.90381503 33.31396633 18.71301453 41.50384843 17 49 C16.071875 48.649375 15.14375 48.29875 14.1875 47.9375 C11.0197047 46.67617372 11.0197047 46.67617372 8 48 C8 47.34 8 46.68 8 46 C7.34 46 6.68 46 6 46 C6 46.66 6 47.32 6 48 C4.824375 47.855625 3.64875 47.71125 2.4375 47.5625 C-0.50311153 47.52580788 -1.70253073 47.77814908 -4.08984375 49.55859375 C-5.81626831 51.31326247 -7.44369028 53.0935206 -9 55 C-9.66 54.67 -10.32 54.34 -11 54 C-10.12988281 53.12601563 -10.12988281 53.12601563 -9.2421875 52.234375 C0.61062556 41.89379892 5.39692641 31.98082282 5.3671875 17.765625 C4.8800062 12.76942527 3.25586432 8.82051808 1.09375 4.328125 C0 2 0 2 0 0 Z " fill="#44AC65" transform="translate(180,51)"/>
<path d="M0 0 C0.33 0 0.66 0 1 0 C1.2475 1.60875 1.2475 1.60875 1.5 3.25 C2.17006939 5.62355567 2.50383299 6.69494038 4.6328125 8.00390625 C5.29023438 8.27074219 5.94765625 8.53757812 6.625 8.8125 C13.34059598 11.63818793 17.68809312 18.18716341 21 24.5 C22 27 22 27 22 29 C21.01 29.33 20.02 29.66 19 30 C18.690625 29.05125 18.38125 28.1025 18.0625 27.125 C15.32673939 20.66226117 9.78297835 14.8553189 4 11 C3.25880999 22.54877781 3.25880999 22.54877781 7.75390625 32.92578125 C9.84485661 36.40632871 10.30706879 40.031394 11 44 C10.34 44 9.68 44 9 44 C8.47599609 42.71802734 8.47599609 42.71802734 7.94140625 41.41015625 C7.48636719 40.30542969 7.03132813 39.20070312 6.5625 38.0625 C6.11003906 36.96035156 5.65757812 35.85820313 5.19140625 34.72265625 C4.25575392 32.13431084 4.25575392 32.13431084 3 31 C2.67 36.94 2.34 42.88 2 49 C1.34 49 0.68 49 0 49 C-0.66 43.39 -1.32 37.78 -2 32 C-3.65 35.96 -5.3 39.92 -7 44 C-7.66 44 -8.32 44 -9 44 C-8.59657725 37.81418444 -6.51160866 30.51160866 -2 26 C-1.92686433 23.46950598 -1.90752473 20.96695163 -1.9375 18.4375 C-1.94201172 17.72658203 -1.94652344 17.01566406 -1.95117188 16.28320312 C-1.96299136 14.52209987 -1.98092737 12.76103964 -2 11 C-2.78375 11.66 -3.5675 12.32 -4.375 13 C-7 15 -7 15 -9 15 C-9.24492187 15.55171875 -9.48984375 16.1034375 -9.7421875 16.671875 C-11.25738114 19.47639491 -13.11084126 21.78103123 -15.125 24.25 C-15.84945312 25.14203125 -16.57390625 26.0340625 -17.3203125 26.953125 C-17.87460938 27.62859375 -18.42890625 28.3040625 -19 29 C-20 26 -20 26 -19.03125 24.01953125 C-8.19736382 8.40436367 -8.19736382 8.40436367 -1 7 C-0.67 4.69 -0.34 2.38 0 0 Z " fill="#85D589" transform="translate(155,60)"/>
<path d="M0 0 C13.36633663 -0.44554455 13.36633663 -0.44554455 18 3 C20.60232515 5.93810905 21.25019085 8.16677533 21.0625 12 C20.39786936 15.50924975 19.2028351 17.97355508 16.23046875 20.16796875 C11.10038339 22.08164333 5.35685432 21.25268181 0 21 C0 14.07 0 7.14 0 0 Z M7 6 C7 8.97 7 11.94 7 15 C9.41619823 15.25030977 9.41619823 15.25030977 12 15 C14.33391203 12.21885944 14.33391203 12.21885944 13.625 9.3125 C13.41875 8.549375 13.2125 7.78625 13 7 C10.03 6.505 10.03 6.505 7 6 Z " fill="#449659" transform="translate(172,153)"/>
<path d="M0 0 C2.06910486 3.10365728 2.22287574 3.64805405 2.0625 7.125 C2.041875 8.40375 2.02125 9.6825 2 11 C2.33 11.33 2.66 11.66 3 12 C3.20377684 15.79628713 3.34693644 19.58608073 3.4296875 23.38671875 C3.460625 24.18464844 3.4915625 24.98257813 3.5234375 25.8046875 C3.54325684 26.53671387 3.56307617 27.26874023 3.58349609 28.02294922 C4.10205098 30.48441313 5.10555306 31.40504052 7 33 C6.21625 32.67 5.4325 32.34 4.625 32 C0.63153705 30.47868078 -1.15040354 31.37911728 -5 33 C-4.5155542 32.5877417 -4.0311084 32.1754834 -3.53198242 31.75073242 C-1.70832867 29.66668126 -1.59077411 28.71459137 -1.48828125 25.98828125 C-1.45283203 25.23095703 -1.41738281 24.47363281 -1.38085938 23.69335938 C-1.35830078 22.90767578 -1.33574219 22.12199219 -1.3125 21.3125 C-1.27833984 20.51521484 -1.24417969 19.71792969 -1.20898438 18.89648438 C-1.12661896 16.93148096 -1.06162933 14.96576304 -1 13 C-9.37550694 18.35502958 -15.69427229 24.82378715 -20.80859375 33.34765625 C-21.20175781 33.89292969 -21.59492188 34.43820313 -22 35 C-22.66 35 -23.32 35 -24 35 C-23.45814897 31.03337257 -22.3958173 28.77917503 -19.875 25.6875 C-19.24722656 24.91535156 -18.61945313 24.14320312 -17.97265625 23.34765625 C-17.32167969 22.57292969 -16.67070312 21.79820313 -16 21 C-15.37996094 20.25621094 -14.75992188 19.51242188 -14.12109375 18.74609375 C-7.1142481 10.52856202 -7.1142481 10.52856202 -1 9 C-0.67 6.03 -0.34 3.06 0 0 Z " fill="#97E891" transform="translate(155,36)"/>
<path d="M0 0 C1.91541138 -0.10841951 3.83259773 -0.18578079 5.75 -0.25 C6.81734375 -0.29640625 7.8846875 -0.3428125 8.984375 -0.390625 C12 0 12 0 14.3671875 1.8515625 C16 4 16 4 16.375 6.625 C16 9 16 9 14 11 C14.32198966 14.09926819 14.32198966 14.09926819 15 17 C13.125 16.6875 13.125 16.6875 11 16 C10.34 15.01 9.68 14.02 9 13 C6.43717258 12.27034634 6.43717258 12.27034634 4 12 C4 13.65 4 15.3 4 17 C3.01 17 2.02 17 1 17 C0.34 16.34 -0.32 15.68 -1 15 C-0.98252112 12.40730017 -0.86231408 9.9474846 -0.625 7.375 C-0.56828125 6.66859375 -0.5115625 5.9621875 -0.453125 5.234375 C-0.31159079 3.48878639 -0.15702613 1.74426327 0 0 Z M6 4 C6 5.32 6 6.64 6 8 C7.65 7.67 9.3 7.34 11 7 C10.67 6.01 10.34 5.02 10 4 C8.68 4 7.36 4 6 4 Z " fill="#419957" transform="translate(153,155)"/>
<path d="M0 0 C4.41123512 0.04005012 7.30578813 0.25020257 10.75 3.25 C12.75 6.25 12.75 6.25 12.4375 9.1875 C11.75 12.25 11.75 12.25 11.0625 14.3125 C10.6216356 17.04585931 11.59076717 18.79515402 12.75 21.25 C9.5625 21.5625 9.5625 21.5625 5.75 21.25 C2.8125 18.75 2.8125 18.75 0.75 16.25 C0.75 17.9 0.75 19.55 0.75 21.25 C-2.58333333 21.25 -5.91666667 21.25 -9.25 21.25 C-10.08273438 21.30800781 -10.91546875 21.36601562 -11.7734375 21.42578125 C-19.44254658 21.79347826 -19.44254658 21.79347826 -23.5 19.0625 C-25.25 16.25 -25.25 16.25 -25.0625 13.4375 C-24.794375 12.715625 -24.52625 11.99375 -24.25 11.25 C-22.25 14.25 -22.25 14.25 -21.5078125 16.390625 C-20.34625101 18.5693045 -20.34625101 18.5693045 -17.4296875 18.859375 C-16.33914062 18.90578125 -15.24859375 18.9521875 -14.125 19 C-13.02929688 19.05671875 -11.93359375 19.1134375 -10.8046875 19.171875 C-9.54011719 19.21054688 -9.54011719 19.21054688 -8.25 19.25 C-8.25 18.26 -8.25 17.27 -8.25 16.25 C-12.21 16.745 -12.21 16.745 -16.25 17.25 C-13.06237635 15.12491756 -10.98487777 14.7479837 -7.25 14.25 C-6.92 14.91 -6.59 15.57 -6.25 16.25 C-5.59 15.26 -4.93 14.27 -4.25 13.25 C-4.25 15.23 -4.25 17.21 -4.25 19.25 C-3.26 19.25 -2.27 19.25 -1.25 19.25 C-1.25 17.6 -1.25 15.95 -1.25 14.25 C1.0625 14 1.0625 14 3.75 14.25 C5.375 16.1875 5.375 16.1875 6.75 18.25 C7.74 18.58 8.73 18.91 9.75 19.25 C9.09 18.26 8.43 17.27 7.75 16.25 C8.26724138 12.73275862 8.26724138 12.73275862 9.75 11.25 C9.49751373 7.73254713 9.49751373 7.73254713 8.75 4.25 C6.04816945 2.89908472 3.63191794 2.91141942 0.625 2.6875 C-1.01855469 2.56181641 -1.01855469 2.56181641 -2.6953125 2.43359375 C-3.53835937 2.37300781 -4.38140625 2.31242188 -5.25 2.25 C-5.25 5.55 -5.25 8.85 -5.25 12.25 C-5.58 12.25 -5.91 12.25 -6.25 12.25 C-6.27687279 10.43757948 -6.29633715 8.62504767 -6.3125 6.8125 C-6.32410156 5.80316406 -6.33570313 4.79382813 -6.34765625 3.75390625 C-6.17249688 -0.73717997 -3.98227696 0.0638868 0 0 Z " fill="#487B52" transform="translate(158.25,152.75)"/>
<path d="M0 0 C2.65350372 2.65350372 2.41889788 4.36437023 2.8125 8.0625 C3.56500687 13.53472995 4.91087611 17.22333989 7.82421875 21.85546875 C9.77185847 25.40780831 10.30708953 29.03151278 11 33 C10.34 33 9.68 33 9 33 C8.47599609 31.71802734 8.47599609 31.71802734 7.94140625 30.41015625 C7.48636719 29.30542969 7.03132813 28.20070313 6.5625 27.0625 C6.11003906 25.96035156 5.65757812 24.85820313 5.19140625 23.72265625 C4.25575392 21.13431084 4.25575392 21.13431084 3 20 C2.67 25.94 2.34 31.88 2 38 C1.34 38 0.68 38 0 38 C-0.66 32.39 -1.32 26.78 -2 21 C-3.65 24.96 -5.3 28.92 -7 33 C-7.66 33 -8.32 33 -9 33 C-8.57664615 26.50857435 -6.08900201 21.66507011 -3 16 C-2.01 16 -1.02 16 0 16 C0 10.72 0 5.44 0 0 Z " fill="#56A46E" transform="translate(155,71)"/>
<path d="M0 0 C3.96 0 7.92 0 12 0 C11.67 0.66 11.34 1.32 11 2 C8.03 2 5.06 2 2 2 C2 7.61 2 13.22 2 19 C5.96 18.67 9.92 18.34 14 18 C14 17.67 14 17.34 14 17 C11.03 17 8.06 17 5 17 C5 13.37 5 9.74 5 6 C5.66 6 6.32 6 7 6 C7 8.97 7 11.94 7 15 C8.258125 14.608125 9.51625 14.21625 10.8125 13.8125 C12.95703125 13.14453125 12.95703125 13.14453125 15 13 C16.76171875 14.44921875 16.76171875 14.44921875 18 16 C17.88490339 14.58249437 17.75746342 13.16598831 17.625 11.75 C17.55539063 10.96109375 17.48578125 10.1721875 17.4140625 9.359375 C16.98492887 6.914123 16.21399362 5.15163097 15 3 C17.48587357 3.33144981 18.67459316 3.61261091 20.3125 5.5625 C21.34699709 9.2302624 21.15523459 12.42089897 20 16 C17.23374931 19.79371523 17.23374931 19.79371523 14 21 C9.24896875 21.40692926 4.78592809 21.22575133 0 21 C0 14.07 0 7.14 0 0 Z " fill="#467E53" transform="translate(172,153)"/>
<path d="M0 0 C0.66 0 1.32 0 2 0 C1.731875 0.66 1.46375 1.32 1.1875 2 C0.795625 2.99 0.40375 3.98 0 5 C-0.25265625 5.59296875 -0.5053125 6.1859375 -0.765625 6.796875 C-4.37729255 15.64900136 -4.22545638 22.79331744 -2 32 C-1.66040676 33.66540245 -1.32536602 35.33175966 -1 37 C-4.41992779 34.72004814 -4.6114352 33.98504086 -5.6875 30.1875 C-6.06455078 28.90939453 -6.06455078 28.90939453 -6.44921875 27.60546875 C-7.00228387 24.98919614 -7.10048484 22.66524083 -7 20 C-8.98020421 20.44033992 -8.98020421 20.44033992 -11 22 C-12.26152609 24.5863924 -13.15643045 27.25200829 -14 30 C-15.77912658 25.21437471 -13.68275885 21.84187906 -11.7421875 17.390625 C-8.67432848 11.41999354 -4.77817719 4.77817719 0 0 Z " fill="#89DC8D" transform="translate(130,51)"/>
<path d="M0 0 C0.99 0.33 1.98 0.66 3 1 C3.99 0.67 4.98 0.34 6 0 C6.99 0.33 7.98 0.66 9 1 C10.08754852 4.34964944 10.08735791 5.77612779 8.78515625 9.11328125 C8.21667969 10.16902344 7.64820313 11.22476563 7.0625 12.3125 C6.49660156 13.38113281 5.93070313 14.44976562 5.34765625 15.55078125 C4.68056641 16.76314453 4.68056641 16.76314453 4 18 C2.53550704 13.55770469 4.03304259 11.16087144 6 7 C6.33 6.01 6.66 5.02 7 4 C6.21625 4.66 5.4325 5.32 4.625 6 C2 8 2 8 0 8 C0 6.35 0 4.7 0 3 C-7.02266045 4.19668653 -10.9478122 6.85302552 -16.25 11.5 C-17.62745214 12.68030751 -19.00757239 13.85750995 -20.390625 15.03125 C-20.98907227 15.55267578 -21.58751953 16.07410156 -22.20410156 16.61132812 C-24.05036217 18.03894237 -25.88345258 19.02850823 -28 20 C-25.1779119 13.41512777 -18.9684733 9.54882196 -13 6 C-11.8553125 4.63875 -11.8553125 4.63875 -10.6875 3.25 C-8 1 -8 1 -5.90625 0.90234375 C-3.6875 1.1875 -3.6875 1.1875 0 2 C0 1.34 0 0.68 0 0 Z " fill="#159657" transform="translate(186,97)"/>
<path d="M0 0 C2.31 0 4.62 0 7 0 C8.80230168 3.82989106 9.19622241 6.78121808 9 11 C8.34 11 7.68 11 7 11 C6.34 10.34 5.68 9.68 5 9 C3.02 12.96 1.04 16.92 -1 21 C-2.98 21 -4.96 21 -7 21 C-8.5625 18.1875 -8.5625 18.1875 -10 15 C-9.67 14.01 -9.34 13.02 -9 12 C-6.64046906 14.35953094 -6.50858587 15.77895617 -6 19 C-4.35 19 -2.7 19 -1 19 C-0.83177734 17.95779297 -0.83177734 17.95779297 -0.66015625 16.89453125 C0.08446115 13.62967036 1.24400088 10.76399795 2.5625 7.6875 C3.01753906 6.61886719 3.47257813 5.55023438 3.94140625 4.44921875 C4.29074219 3.64097656 4.64007813 2.83273438 5 2 C4.01 2 3.02 2 2 2 C1.79697266 2.86044922 1.79697266 2.86044922 1.58984375 3.73828125 C1.01562653 5.94008107 0.33702456 8.04852802 -0.4375 10.1875 C-0.68371094 10.88230469 -0.92992188 11.57710937 -1.18359375 12.29296875 C-2 14 -2 14 -4 15 C-6.40814077 11.48812804 -7.36629408 9.27343092 -7 5 C-5.68 6.32 -4.36 7.64 -3 9 C-2.01 6.03 -1.02 3.06 0 0 Z " fill="#4A7F56" transform="translate(128,153)"/>
<path d="M0 0 C4.05727499 1.352425 5.27889925 4.02937894 7.4375 7.5 C7.83565918 8.13131836 8.23381836 8.76263672 8.64404297 9.41308594 C11.56606392 14.12338851 14.08622419 18.78061142 16 24 C15.67 24.66 15.34 25.32 15 26 C13.10134397 23.02819057 11.64544429 20.48539917 11 17 C10.34 17 9.68 17 9 17 C9.020625 18.258125 9.04125 19.51625 9.0625 20.8125 C9.10886083 23.64051087 8.91692961 25.24921116 8 28 C7.34 28 6.68 28 6 28 C5.98582031 27.12859375 5.97164062 26.2571875 5.95703125 25.359375 C5.64328031 17.52408114 4.40947225 11.42857009 1.05859375 4.328125 C0 2 0 2 0 0 Z " fill="#8AE18C" transform="translate(180,51)"/>
<path d="M0 0 C1.258125 -0.020625 2.51625 -0.04125 3.8125 -0.0625 C4.52019531 -0.07410156 5.22789062 -0.08570313 5.95703125 -0.09765625 C8 0 8 0 11 1 C10.67 2.98 10.34 4.96 10 7 C7.03 6.67 4.06 6.34 1 6 C1 6.66 1 7.32 1 8 C1.763125 7.814375 2.52625 7.62875 3.3125 7.4375 C6 7 6 7 9 8 C9.042721 9.66611905 9.04063832 11.33382885 9 13 C8 14 8 14 4.5 14.4375 C2.7675 14.7159375 2.7675 14.7159375 1 15 C0.67 15.66 0.34 16.32 0 17 C-0.625 15.1875 -0.625 15.1875 -1 13 C-0.34 12.01 0.32 11.02 1 10 C0.6878236 7.35367713 0.6878236 7.35367713 0 5 C2.64 4.67 5.28 4.34 8 4 C4.77208445 1.8480563 3.71599191 1.79913557 0 2 C0 1.34 0 0.68 0 0 Z " fill="#4A7F54" transform="translate(140,153)"/>
<path d="M0 0 C0.66 0.33 1.32 0.66 2 1 C2 4 2 4 0.53125 5.5078125 C-0.1390625 6.04148437 -0.809375 6.57515625 -1.5 7.125 C-6.89631836 11.64908928 -12.05701634 16.64350755 -15.60546875 22.7734375 C-16.06566406 23.50820312 -16.52585938 24.24296875 -17 25 C-17.66 25 -18.32 25 -19 25 C-18.45814897 21.03337257 -17.3958173 18.77917503 -14.875 15.6875 C-14.24722656 14.91535156 -13.61945313 14.14320312 -12.97265625 13.34765625 C-12.32167969 12.57292969 -11.67070312 11.79820313 -11 11 C-10.06994141 9.88431641 -10.06994141 9.88431641 -9.12109375 8.74609375 C-6.27307433 5.40597594 -3.59390452 2.5525335 0 0 Z " fill="#ACF7A2" transform="translate(150,46)"/>
<path d="M0 0 C3.63 0 7.26 0 11 0 C11.87890625 6.93359375 11.87890625 6.93359375 12 9 C11 10 11 10 7.4375 10.0625 C6.303125 10.041875 5.16875 10.02125 4 10 C3.67 8.35 3.34 6.7 3 5 C2.34 5 1.68 5 1 5 C0.67 8.3 0.34 11.6 0 15 C-0.33 15 -0.66 15 -1 15 C-0.67 10.05 -0.34 5.1 0 0 Z M6 4 C6 5.32 6 6.64 6 8 C7.65 7.67 9.3 7.34 11 7 C10.67 6.01 10.34 5.02 10 4 C8.68 4 7.36 4 6 4 Z " fill="#479259" transform="translate(153,155)"/>
<path d="M0 0 C5.08056046 1.29967826 7.5297954 3.10659972 11 7 C11.56976563 7.61359375 12.13953125 8.2271875 12.7265625 8.859375 C22 19.04042553 22 19.04042553 22 24 C18.19651872 22.73217291 17.63365921 21.30111615 15.4375 18 C11.82123338 12.83774579 7.84009839 8.8916237 3.00390625 4.875 C1 3 1 3 0 0 Z " fill="#ACEFA0" transform="translate(159,47)"/>
<path d="M0 0 C8.17886263 0.82145782 13.83770263 6.36495991 19.1875 12.3125 C20.0846875 13.6428125 20.0846875 13.6428125 21 15 C20.67 15.99 20.34 16.98 20 18 C19.18208984 17.11248047 19.18208984 17.11248047 18.34765625 16.20703125 C13.33144969 10.95073275 8.58224893 7.09661356 2 4 C2 3.34 2 2.68 2 2 C1.34 1.34 0.68 0.68 0 0 Z " fill="#C1FBB3" transform="translate(155,29)"/>
<path d="M0 0 C2.203125 -0.35546875 2.203125 -0.35546875 5 0 C7.421875 2.44921875 7.421875 2.44921875 9.75 5.6875 C10.52859375 6.74324219 11.3071875 7.79898438 12.109375 8.88671875 C13.85636648 11.76347951 14.6321609 13.69557872 15 17 C14.01 17.33 13.02 17.66 12 18 C11.690625 17.05125 11.38125 16.1025 11.0625 15.125 C9.03471653 10.27422385 5.43585848 6.8110659 1.86328125 3.0390625 C0 1 0 1 0 0 Z " fill="#96C599" transform="translate(162,72)"/>
<path d="M0 0 C0.99 0 1.98 0 3 0 C2.896875 1.27875 2.79375 2.5575 2.6875 3.875 C2.70173275 12.94126387 8.49599941 20.22875528 14 27 C13.67 27.66 13.34 28.32 13 29 C4.7221685 19.9338036 0.04318003 12.56538862 0 0 Z " fill="#189662" transform="translate(117,97)"/>
<path d="M0 0 C1.65 0 3.3 0 5 0 C5.69699552 1.45381897 6.38233866 2.91322953 7.0625 4.375 C7.44535156 5.18710938 7.82820312 5.99921875 8.22265625 6.8359375 C8.47917969 7.55007812 8.73570312 8.26421875 9 9 C8.67 9.66 8.34 10.32 8 11 C6.10134397 8.02819057 4.64544429 5.48539917 4 2 C3.34 2 2.68 2 2 2 C2.020625 3.258125 2.04125 4.51625 2.0625 5.8125 C2.10886083 8.64051087 1.91692961 10.24921116 1 13 C0.34 13 -0.32 13 -1 13 C-1.02696365 11.20841511 -1.04637917 9.41671527 -1.0625 7.625 C-1.07410156 6.62726563 -1.08570313 5.62953125 -1.09765625 4.6015625 C-1 2 -1 2 0 0 Z " fill="#74CC7C" transform="translate(187,66)"/>
<path d="M0 0 C0.33 0 0.66 0 1 0 C1.3403125 1.175625 1.3403125 1.175625 1.6875 2.375 C2.79654957 5.43808928 4.04797161 8.07040145 5.5625 10.9375 C7.69184023 15.07718792 8.69816138 18.37180777 9 23 C8.34 23 7.68 23 7 23 C6.49339844 21.75283203 6.49339844 21.75283203 5.9765625 20.48046875 C5.53054687 19.39378906 5.08453125 18.30710937 4.625 17.1875 C3.96371094 15.56908203 3.96371094 15.56908203 3.2890625 13.91796875 C2.0520881 10.89269888 2.0520881 10.89269888 0 8 C-0.25760279 5.30547479 -0.08900053 2.71451625 0 0 Z " fill="#6F9D80" transform="translate(157,81)"/>
<path d="M0 0 C0.99 0 1.98 0 3 0 C3 1.98 3 3.96 3 6 C2.34 5.67 1.68 5.34 1 5 C-0.65 8.96 -2.3 12.92 -4 17 C-4.66 17 -5.32 17 -6 17 C-5.57664615 10.50857435 -3.08900201 5.66507011 0 0 Z " fill="#73AE80" transform="translate(152,87)"/>
<path d="M0 0 C3.64792528 0.5539149 4.94466491 1.75638623 7.1875 4.625 C10.92212255 9.10331362 15.10809046 12.81179012 20 16 C20.66 16 21.32 16 22 16 C22 16.66 22 17.32 22 18 C15.4760659 16.74539729 11.5659051 13.83577543 7.5234375 8.77734375 C6.00911171 7.01063033 4.44661708 5.62854449 2.625 4.1875 C1.75875 3.465625 0.8925 2.74375 0 2 C0 1.34 0 0.68 0 0 Z " fill="#258F5E" transform="translate(135,100)"/>
<path d="M0 0 C0.66 0.99 1.32 1.98 2 3 C-0.03454262 5.18524948 -1.85582936 6.91497629 -4.4375 8.4375 C-7.42514365 10.25923393 -9.60322121 12.46626243 -12 15 C-12.66 14.67 -13.32 14.34 -14 14 C-12.60919892 12.41224451 -11.21211596 10.82999061 -9.8125 9.25 C-8.64654297 7.92742187 -8.64654297 7.92742187 -7.45703125 6.578125 C-5.11544754 4.12113732 -2.69841735 2.05137234 0 0 Z " fill="#33A064" transform="translate(183,91)"/>
<path d="M0 0 C2.33944736 0.28730055 4.6739143 0.61936779 7 1 C7.04254356 2.99954746 7.04080783 5.00041636 7 7 C6 8 6 8 2.4375 8.0625 C1.303125 8.041875 0.16875 8.02125 -1 8 C-1.04241723 5.66705225 -1.04092937 3.33297433 -1 1 C-0.67 0.67 -0.34 0.34 0 0 Z M1 2 C1 3.32 1 4.64 1 6 C2.65 5.67 4.3 5.34 6 5 C5.67 4.01 5.34 3.02 5 2 C3.68 2 2.36 2 1 2 Z " fill="#448253" transform="translate(158,157)"/>
<path d="M0 0 C2.31 0 4.62 0 7 0 C7.66 1.32 8.32 2.64 9 4 C7.35 3.67 5.7 3.34 4 3 C4.33 3.556875 4.66 4.11375 5 4.6875 C6.1309601 7.30284522 6.15662974 9.1806646 6 12 C2.82781157 8.37464179 1.57097403 4.48849722 0 0 Z " fill="#517B56" transform="translate(112,153)"/>
<path d="M0 0 C0.66 0.33 1.32 0.66 2 1 C0.5360077 4.06875309 -1.14009636 6.90434743 -3 9.75 C-3.515625 10.54921875 -4.03125 11.3484375 -4.5625 12.171875 C-5.2740625 13.07679687 -5.2740625 13.07679687 -6 14 C-6.66 14 -7.32 14 -8 14 C-7.46719784 9.77510398 -6.12321801 7.45919284 -3.4375 4.1875 C-2.47650391 3.00220703 -2.47650391 3.00220703 -1.49609375 1.79296875 C-1.00238281 1.20128906 -0.50867188 0.60960937 0 0 Z " fill="#B5EEAC" transform="translate(139,57)"/>
<path d="M0 0 C0.66 0.99 1.32 1.98 2 3 C0.37660195 4.70884005 -1.29319053 6.37446717 -3 8 C-3.66 8 -4.32 8 -5 8 C-5.66 9.32 -6.32 10.64 -7 12 C-7.66 12 -8.32 12 -9 12 C-7.54718935 6.67302761 -3.91888622 3.63597198 0 0 Z " fill="#CAF6BD" transform="translate(145,34)"/>
<path d="M0 0 C2.48587357 0.33144981 3.67459316 0.61261091 5.3125 2.5625 C6.3700081 6.31184689 5.75133772 9.18069991 5 13 C4.01 13.495 4.01 13.495 3 14 C2.92652344 12.98679688 2.92652344 12.98679688 2.8515625 11.953125 C2.77679688 11.06109375 2.70203125 10.1690625 2.625 9.25 C2.55539063 8.36828125 2.48578125 7.4865625 2.4140625 6.578125 C2.00149945 4.00933618 1.28839043 2.24158985 0 0 Z " fill="#468052" transform="translate(187,156)"/>
<path d="M0 0 C0.66 0 1.32 0 2 0 C1.731875 0.66 1.46375 1.32 1.1875 2 C-0.25705047 5.64939067 -1.62871178 9.32245433 -3 13 C-3.66 12.01 -4.32 11.02 -5 10 C-5.99 10.495 -5.99 10.495 -7 11 C-5.51131293 6.39860359 -3.25370145 3.49772906 0 0 Z " fill="#A9E7A2" transform="translate(130,51)"/>
<path d="M0 0 C2.87511449 2.87511449 2.83614951 6.10482694 3 10 C2.5625 13 2.5625 13 2 15 C1.34 15 0.68 15 0 15 C0 10.05 0 5.1 0 0 Z " fill="#61B86F" transform="translate(155,71)"/>
<path d="M0 0 C0.66 0.66 1.32 1.32 2 2 C1.67 2.99 1.34 3.98 1 5 C0.38125 5.226875 -0.2375 5.45375 -0.875 5.6875 C-4.27754033 7.78906903 -4.86474708 11.30182762 -6 15 C-7.12377697 11.69564916 -6.89554742 9.9493138 -5.5625 6.75 C-5.27503906 6.04359375 -4.98757812 5.3371875 -4.69140625 4.609375 C-4.46324219 4.07828125 -4.23507813 3.5471875 -4 3 C-3.01 3 -2.02 3 -1 3 C-0.67 2.01 -0.34 1.02 0 0 Z " fill="#73D07F" transform="translate(122,66)"/>
<path d="M0 0 C0.99 0 1.98 0 3 0 C1.22054913 4.04420651 -1.39529673 7.46078487 -4 11 C-5 8 -5 8 -4.109375 5.95703125 C-3.66078125 5.24933594 -3.2121875 4.54164062 -2.75 3.8125 C-2.31171875 3.09707031 -1.8734375 2.38164063 -1.421875 1.64453125 C-0.95265625 1.10183594 -0.4834375 0.55914062 0 0 Z " fill="#85CA87" transform="translate(140,78)"/>
<path d="M0 0 C0.33 0 0.66 0 1 0 C1 1.98 1 3.96 1 6 C2.32 6 3.64 6 5 6 C5 4.68 5 3.36 5 2 C5.66 2.33 6.32 2.66 7 3 C6.67 4.65 6.34 6.3 6 8 C3.69 8 1.38 8 -1 8 C-1.625 5.6875 -1.625 5.6875 -2 3 C-1.34 2.01 -0.68 1.02 0 0 Z " fill="#46724D" transform="translate(153,166)"/>
<path d="M0 0 C3.34998521 1.11666174 3.79340222 1.74694925 5.6875 4.5625 C6.12449219 5.20316406 6.56148437 5.84382813 7.01171875 6.50390625 C7.33785156 6.99761719 7.66398438 7.49132813 8 8 C7.67 8.66 7.34 9.32 7 10 C6.01 10 5.02 10 4 10 C3.32845067 8.71086513 2.66291141 7.41859796 2 6.125 C1.62875 5.40570313 1.2575 4.68640625 0.875 3.9453125 C0 2 0 2 0 0 Z " fill="#B1E3A3" transform="translate(180,51)"/>
<path d="M0 0 C2.97 0.495 2.97 0.495 6 1 C5.01 3.97 4.02 6.94 3 10 C2.34 9.67 1.68 9.34 1 9 C0.5859375 6.93359375 0.5859375 6.93359375 0.375 4.4375 C0.30023438 3.61121094 0.22546875 2.78492188 0.1484375 1.93359375 C0.09945312 1.29550781 0.05046875 0.65742188 0 0 Z " fill="#3B914F" transform="translate(116,156)"/>
<path d="M0 0 C-1.47797262 3.67056937 -3.47615477 5.41085783 -6.625 7.75 C-7.44226563 8.36359375 -8.25953125 8.9771875 -9.1015625 9.609375 C-9.72804687 10.06828125 -10.35453125 10.5271875 -11 11 C-11 8 -11 8 -9.1015625 5.95703125 C-8.28429687 5.24933594 -7.46703125 4.54164062 -6.625 3.8125 C-5.81289062 3.09707031 -5.00078125 2.38164063 -4.1640625 1.64453125 C-2 0 -2 0 0 0 Z " fill="#1E8C61" transform="translate(170,106)"/>
<path d="M0 0 C0.33 0 0.66 0 1 0 C1.99 4.62 2.98 9.24 4 14 C0.50071836 11.66714557 0.3670902 10.79204931 -0.6875 6.875 C-0.93886719 5.96492188 -1.19023438 5.05484375 -1.44921875 4.1171875 C-1.72185547 3.06917969 -1.72185547 3.06917969 -2 2 C-1.34 1.34 -0.68 0.68 0 0 Z " fill="#6BBE7D" transform="translate(125,74)"/>
<path d="M0 0 C3.48331435 3.01887244 4.79157144 5.56909529 6 10 C2.46766245 8.82255415 2.13691925 8.04394359 0.3125 4.9375 C-0.12449219 4.20402344 -0.56148437 3.47054687 -1.01171875 2.71484375 C-1.50091797 1.86599609 -1.50091797 1.86599609 -2 1 C-1.34 0.67 -0.68 0.34 0 0 Z " fill="#B6E9AC" transform="translate(175,61)"/>
<path d="M0 0 C0.33 0 0.66 0 1 0 C1.28875 0.9075 1.5775 1.815 1.875 2.75 C2.87195406 5.8776777 2.87195406 5.8776777 4.125 8.1875 C5 10 5 10 5 13 C4.34 13 3.68 13 3 13 C-0.4887612 8.70614007 -0.26854022 5.28129105 0 0 Z " fill="#78BC86" transform="translate(157,81)"/>
<path d="M0 0 C2.35981813 0.93578995 4.69631264 1.93347808 7 3 C6.34 3.66 5.68 4.32 5 5 C2.525 4.01 2.525 4.01 0 3 C-0.33 4.98 -0.66 6.96 -1 9 C-1.33 9 -1.66 9 -2 9 C-2 6.36 -2 3.72 -2 1 C-1.34 0.67 -0.68 0.34 0 0 Z " fill="#83CF89" transform="translate(159,68)"/>
<path d="M0 0 C-1.22934015 3.68802044 -2.93859378 4.72356973 -6 7 C-7.32 6.34 -8.64 5.68 -10 5 C-9.4225 4.731875 -8.845 4.46375 -8.25 4.1875 C-5.94252104 3.04946754 -5.94252104 3.04946754 -3.875 1.375 C-2 0 -2 0 0 0 Z " fill="#17694D" transform="translate(163,142)"/>
<path d="M0 0 C0.99 0 1.98 0 3 0 C3 1.98 3 3.96 3 6 C2.34 5.67 1.68 5.34 1 5 C0.67 5.66 0.34 6.32 0 7 C-0.66 7 -1.32 7 -2 7 C-1.125 1.125 -1.125 1.125 0 0 Z " fill="#69BB7D" transform="translate(152,87)"/>
<path d="M0 0 C2.3125 -0.3125 2.3125 -0.3125 5 0 C6.8125 2.5 6.8125 2.5 8 5 C7.34 5.66 6.68 6.32 6 7 C4.02 4.69 2.04 2.38 0 0 Z " fill="#8EDA95" transform="translate(162,72)"/>
<path d="M0 0 C1.32 0.33 2.64 0.66 4 1 C4 3.64 4 6.28 4 9 C3.34 9 2.68 9 2 9 C0.50178941 5.62902617 0 3.79557881 0 0 Z " fill="#427249" transform="translate(133,155)"/>
<path d="M0 0 C0.33 0 0.66 0 1 0 C1 2.64 1 5.28 1 8 C3.475 8.99 3.475 8.99 6 10 C5.01 10.66 4.02 11.32 3 12 C1.68 11.34 0.36 10.68 -1 10 C-0.67 6.7 -0.34 3.4 0 0 Z " fill="#B8F8AC" transform="translate(157,37)"/>
<path d="M0 0 C0.66 0.33 1.32 0.66 2 1 C1 4 1 4 -2 6 C-2.99 6 -3.98 6 -5 6 C-5 5.01 -5 4.02 -5 3 C-2.625 1.25 -2.625 1.25 0 0 Z " fill="#B4F3A3" transform="translate(151,30)"/>
<path d="M0 0 C1.48285242 0.95262034 2.96118201 1.91228405 4.4375 2.875 C5.67306641 3.67550781 5.67306641 3.67550781 6.93359375 4.4921875 C9 6 9 6 10 8 C6.33118845 7.29445932 3.29549466 5.72264494 0 4 C0 2.68 0 1.36 0 0 Z " fill="#168058" transform="translate(147,110)"/>
<path d="M0 0 C0.33 0.66 0.66 1.32 1 2 C2.65 2 4.3 2 6 2 C5.34 2.66 4.68 3.32 4 4 C2.68 4 1.36 4 0 4 C-0.66 4.66 -1.32 5.32 -2 6 C-2.33 4.68 -2.66 3.36 -3 2 C-2.01 1.34 -1.02 0.68 0 0 Z " fill="#139657" transform="translate(123,97)"/>
<path d="M0 0 C2.95514876 2.75134539 5.1524809 5.39733775 7 9 C7 9.99 7 10.98 7 12 C0.29612756 4.88610478 0.29612756 4.88610478 0 0 Z " fill="#158664" transform="translate(123,114)"/>
<path d="M0 0 C5.57142857 5.14285714 5.57142857 5.14285714 6 9 C1.3125 5.484375 1.3125 5.484375 0 4 C0 2.68 0 1.36 0 0 Z " fill="#CFF7C2" transform="translate(170,38)"/>
<path d="M0 0 C3.80984844 2.77079887 4.06840752 6.62868145 5 11 C1.62668646 8.75112431 1.1641821 7.7612037 0 4 C0 2.68 0 1.36 0 0 Z " fill="#80DA8E" transform="translate(191,66)"/>
<path d="M0 0 C1.32 0.33 2.64 0.66 4 1 C3.375 2.9375 3.375 2.9375 2 5 C-1.125 5.75 -1.125 5.75 -4 6 C-3.34 5.38125 -2.68 4.7625 -2 4.125 C0.2284549 2.24362573 0.2284549 2.24362573 0 0 Z " fill="#508A5C" transform="translate(186,168)"/>
<path d="M0 0 C0.66 0 1.32 0 2 0 C2 2.31 2 4.62 2 7 C1.01 6.67 0.02 6.34 -1 6 C-1 5.34 -1 4.68 -1 4 C-1.66 3.67 -2.32 3.34 -3 3 C-2.01 3 -1.02 3 0 3 C0 2.01 0 1.02 0 0 Z " fill="#3D9D54" transform="translate(188,162)"/>
<path d="M0 0 C1.25 1.5625 1.25 1.5625 2 4 C0.93237266 6.57001015 -0.46544943 8.6530403 -2 11 C-2.95465783 8.83032311 -3.14401212 7.43671207 -2.3984375 5.17578125 C-1.64129615 3.4315257 -0.82390802 1.71372869 0 0 Z " fill="#198A5C" transform="translate(192,104)"/>
<path d="M0 0 C2.86724686 0.57344937 3.8614515 0.8614515 6 3 C6 4.32 6 5.64 6 7 C5.34 7 4.68 7 4 7 C3.67 5.35 3.34 3.7 3 2 C2.01 2 1.02 2 0 2 C0 1.34 0 0.68 0 0 Z " fill="#428052" transform="translate(182,158)"/>
<path d="M0 0 C1.32 0.33 2.64 0.66 4 1 C1.36 2.98 -1.28 4.96 -4 7 C-4.66 6.67 -5.32 6.34 -6 6 C-5.09972412 4.96468274 -4.17906965 3.94705835 -3.25 2.9375 C-2.48429688 2.08478516 -2.48429688 2.08478516 -1.703125 1.21484375 C-1.14109375 0.81394531 -0.5790625 0.41304688 0 0 Z " fill="#0B9256" transform="translate(176,100)"/>
<path d="M0 0 C0.66 0.66 1.32 1.32 2 2 C1.625 5.125 1.625 5.125 1 8 C0.34 8 -0.32 8 -1 8 C-1.04241723 5.66705225 -1.04092937 3.33297433 -1 1 C-0.67 0.67 -0.34 0.34 0 0 Z " fill="#299B58" transform="translate(194,98)"/>
<path d="M0 0 C1.98 0.66 3.96 1.32 6 2 C6 2.99 6 3.98 6 5 C4.125 4.75 4.125 4.75 2 4 C0.75 1.9375 0.75 1.9375 0 0 Z " fill="#99F592" transform="translate(159,47)"/>
<path d="M0 0 C0.99 0.33 1.98 0.66 3 1 C1.515 3.475 1.515 3.475 0 6 C-0.66 5.67 -1.32 5.34 -2 5 C-1.34 3.35 -0.68 1.7 0 0 Z " fill="#9CEE92" transform="translate(142,53)"/>
<path d="" fill="#000000" transform="translate(0,0)"/>
<path d="" fill="#000000" transform="translate(0,0)"/>
<path d="" fill="#000000" transform="translate(0,0)"/>
<path d="" fill="#000000" transform="translate(0,0)"/>
<path d="" fill="#000000" transform="translate(0,0)"/>
<path d="" fill="#000000" transform="translate(0,0)"/>
<path d="" fill="#000000" transform="translate(0,0)"/>
<path d="" fill="#000000" transform="translate(0,0)"/>
<path d="" fill="#000000" transform="translate(0,0)"/>
<path d="" fill="#000000" transform="translate(0,0)"/>
<path d="" fill="#000000" transform="translate(0,0)"/>
<path d="" fill="#000000" transform="translate(0,0)"/>
<path d="" fill="#000000" transform="translate(0,0)"/>
<path d="" fill="#000000" transform="translate(0,0)"/>
<path d="" fill="#000000" transform="translate(0,0)"/>
<path d="" fill="#000000" transform="translate(0,0)"/>
<path d="" fill="#000000" transform="translate(0,0)"/>
<path d="" fill="#000000" transform="translate(0,0)"/>
<path d="" fill="#000000" transform="translate(0,0)"/>
<path d="" fill="#000000" transform="translate(0,0)"/>
<path d="" fill="#000000" transform="translate(0,0)"/>
<path d="" fill="#000000" transform="translate(0,0)"/>
<path d="" fill="#000000" transform="translate(0,0)"/>
<path d="" fill="#000000" transform="translate(0,0)"/>
<path d="" fill="#000000" transform="translate(0,0)"/>
<path d="" fill="#000000" transform="translate(0,0)"/>
<path d="" fill="#000000" transform="translate(0,0)"/>
<path d="" fill="#000000" transform="translate(0,0)"/>
<path d="" fill="#000000" transform="translate(0,0)"/>
<path d="" fill="#000000" transform="translate(0,0)"/>
<path d="" fill="#000000" transform="translate(0,0)"/>
<path d="" fill="#000000" transform="translate(0,0)"/>
<path d="" fill="#000000" transform="translate(0,0)"/>
<path d="" fill="#000000" transform="translate(0,0)"/>
<path d="" fill="#000000" transform="translate(0,0)"/>
<path d="" fill="#000000" transform="translate(0,0)"/>
<path d="" fill="#000000" transform="translate(0,0)"/>
<path d="" fill="#000000" transform="translate(0,0)"/>
<path d="" fill="#000000" transform="translate(0,0)"/>
<path d="" fill="#000000" transform="translate(0,0)"/>
<path d="" fill="#000000" transform="translate(0,0)"/>
<path d="" fill="#000000" transform="translate(0,0)"/>
<path d="" fill="#000000" transform="translate(0,0)"/>
<path d="" fill="#000000" transform="translate(0,0)"/>
<path d="" fill="#000000" transform="translate(0,0)"/>
<path d="" fill="#000000" transform="translate(0,0)"/>
<path d="" fill="#000000" transform="translate(0,0)"/>
<path d="" fill="#000000" transform="translate(0,0)"/>
<path d="" fill="#000000" transform="translate(0,0)"/>
<path d="" fill="#000000" transform="translate(0,0)"/>
<path d="" fill="#000000" transform="translate(0,0)"/>
<path d="" fill="#000000" transform="translate(0,0)"/>
<path d="" fill="#000000" transform="translate(0,0)"/>
<path d="" fill="#000000" transform="translate(0,0)"/>
<path d="" fill="#000000" transform="translate(0,0)"/>
<path d="" fill="#000000" transform="translate(0,0)"/>
<path d="" fill="#000000" transform="translate(0,0)"/>
<path d="" fill="#000000" transform="translate(0,0)"/>
<path d="" fill="#000000" transform="translate(0,0)"/>
<path d="" fill="#000000" transform="translate(0,0)"/>
<path d="" fill="#000000" transform="translate(0,0)"/>
<path d="" fill="#000000" transform="translate(0,0)"/>
<path d="" fill="#000000" transform="translate(0,0)"/>
<path d="" fill="#000000" transform="translate(0,0)"/>
<path d="" fill="#000000" transform="translate(0,0)"/>
<path d="" fill="#000000" transform="translate(0,0)"/>
<path d="" fill="#000000" transform="translate(0,0)"/>
<path d="" fill="#000000" transform="translate(0,0)"/>
<path d="" fill="#000000" transform="translate(0,0)"/>
<path d="" fill="#000000" transform="translate(0,0)"/>
<path d="" fill="#000000" transform="translate(0,0)"/>
<path d="" fill="#000000" transform="translate(0,0)"/>
<path d="" fill="#000000" transform="translate(0,0)"/>
<path d="" fill="#000000" transform="translate(0,0)"/>
<path d="" fill="#000000" transform="translate(0,0)"/>
<path d="" fill="#000000" transform="translate(0,0)"/>
<path d="" fill="#000000" transform="translate(0,0)"/>
<path d="" fill="#000000" transform="translate(0,0)"/>
<path d="" fill="#000000" transform="translate(0,0)"/>
<path d="" fill="#000000" transform="translate(0,0)"/>
<path d="" fill="#000000" transform="translate(0,0)"/>
<path d="" fill="#000000" transform="translate(0,0)"/>
<path d="" fill="#000000" transform="translate(0,0)"/>
<path d="" fill="#000000" transform="translate(0,0)"/>
<path d="" fill="#000000" transform="translate(0,0)"/>
<path d="" fill="#000000" transform="translate(0,0)"/>
<path d="" fill="#000000" transform="translate(0,0)"/>
<path d="" fill="#000000" transform="translate(0,0)"/>
<path d="" fill="#000000" transform="translate(0,0)"/>
<path d="" fill="#000000" transform="translate(0,0)"/>
<path d="" fill="#000000" transform="translate(0,0)"/>
<path d="" fill="#000000" transform="translate(0,0)"/>
<path d="" fill="#000000" transform="translate(0,0)"/>
<path d="" fill="#000000" transform="translate(0,0)"/>
<path d="" fill="#000000" transform="translate(0,0)"/>
<path d="" fill="#000000" transform="translate(0,0)"/>
<path d="" fill="#000000" transform="translate(0,0)"/>
<path d="" fill="#000000" transform="translate(0,0)"/>
<path d="" fill="#000000" transform="translate(0,0)"/>
<path d="" fill="#000000" transform="translate(0,0)"/>
<path d="" fill="#000000" transform="translate(0,0)"/>
<path d="" fill="#000000" transform="translate(0,0)"/>
<path d="" fill="#000000" transform="translate(0,0)"/>
<path d="" fill="#000000" transform="translate(0,0)"/>
<path d="" fill="#000000" transform="translate(0,0)"/>
<path d="" fill="#000000" transform="translate(0,0)"/>
<path d="" fill="#000000" transform="translate(0,0)"/>
<path d="" fill="#000000" transform="translate(0,0)"/>
<path d="" fill="#000000" transform="translate(0,0)"/>
<path d="" fill="#000000" transform="translate(0,0)"/>
<path d="" fill="#000000" transform="translate(0,0)"/>
<path d="" fill="#000000" transform="translate(0,0)"/>
<path d="" fill="#000000" transform="translate(0,0)"/>
<path d="" fill="#000000" transform="translate(0,0)"/>
<path d="" fill="#000000" transform="translate(0,0)"/>
<path d="" fill="#000000" transform="translate(0,0)"/>
<path d="" fill="#000000" transform="translate(0,0)"/>
<path d="" fill="#000000" transform="translate(0,0)"/>
<path d="" fill="#000000" transform="translate(0,0)"/>
</svg>
